%TF.GenerationSoftware,KiCad,Pcbnew,8.0.6*%
%TF.CreationDate,2024-11-18T15:04:43+07:00*%
%TF.ProjectId,RC-Transmitter,52432d54-7261-46e7-936d-69747465722e,V1.02*%
%TF.SameCoordinates,Original*%
%TF.FileFunction,Legend,Top*%
%TF.FilePolarity,Positive*%
%FSLAX46Y46*%
G04 Gerber Fmt 4.6, Leading zero omitted, Abs format (unit mm)*
G04 Created by KiCad (PCBNEW 8.0.6) date 2024-11-18 15:04:43*
%MOMM*%
%LPD*%
G01*
G04 APERTURE LIST*
%ADD10C,0.150000*%
%ADD11C,0.100000*%
%ADD12C,0.254000*%
%ADD13C,0.120000*%
%ADD14C,0.200000*%
G04 APERTURE END LIST*
D10*
X181317698Y-137577080D02*
X181317698Y-138362795D01*
X181317698Y-138362795D02*
X181265317Y-138519938D01*
X181265317Y-138519938D02*
X181160555Y-138624700D01*
X181160555Y-138624700D02*
X181003412Y-138677080D01*
X181003412Y-138677080D02*
X180898650Y-138677080D01*
X181841507Y-138677080D02*
X181841507Y-137943747D01*
X181841507Y-137577080D02*
X181789126Y-137629461D01*
X181789126Y-137629461D02*
X181841507Y-137681842D01*
X181841507Y-137681842D02*
X181893888Y-137629461D01*
X181893888Y-137629461D02*
X181841507Y-137577080D01*
X181841507Y-137577080D02*
X181841507Y-137681842D01*
X182365317Y-138677080D02*
X182365317Y-137943747D01*
X182365317Y-138153271D02*
X182417698Y-138048509D01*
X182417698Y-138048509D02*
X182470079Y-137996128D01*
X182470079Y-137996128D02*
X182574841Y-137943747D01*
X182574841Y-137943747D02*
X182679603Y-137943747D01*
X183517698Y-138677080D02*
X183517698Y-138100890D01*
X183517698Y-138100890D02*
X183465317Y-137996128D01*
X183465317Y-137996128D02*
X183360555Y-137943747D01*
X183360555Y-137943747D02*
X183151031Y-137943747D01*
X183151031Y-137943747D02*
X183046269Y-137996128D01*
X183517698Y-138624700D02*
X183412936Y-138677080D01*
X183412936Y-138677080D02*
X183151031Y-138677080D01*
X183151031Y-138677080D02*
X183046269Y-138624700D01*
X183046269Y-138624700D02*
X182993888Y-138519938D01*
X182993888Y-138519938D02*
X182993888Y-138415176D01*
X182993888Y-138415176D02*
X183046269Y-138310414D01*
X183046269Y-138310414D02*
X183151031Y-138258033D01*
X183151031Y-138258033D02*
X183412936Y-138258033D01*
X183412936Y-138258033D02*
X183517698Y-138205652D01*
X184041507Y-138677080D02*
X184041507Y-137577080D01*
X184146269Y-138258033D02*
X184460555Y-138677080D01*
X184460555Y-137943747D02*
X184041507Y-138362795D01*
X185089126Y-138677080D02*
X184984364Y-138624700D01*
X184984364Y-138624700D02*
X184931983Y-138572319D01*
X184931983Y-138572319D02*
X184879602Y-138467557D01*
X184879602Y-138467557D02*
X184879602Y-138153271D01*
X184879602Y-138153271D02*
X184931983Y-138048509D01*
X184931983Y-138048509D02*
X184984364Y-137996128D01*
X184984364Y-137996128D02*
X185089126Y-137943747D01*
X185089126Y-137943747D02*
X185246269Y-137943747D01*
X185246269Y-137943747D02*
X185351031Y-137996128D01*
X185351031Y-137996128D02*
X185403412Y-138048509D01*
X185403412Y-138048509D02*
X185455793Y-138153271D01*
X185455793Y-138153271D02*
X185455793Y-138467557D01*
X185455793Y-138467557D02*
X185403412Y-138572319D01*
X185403412Y-138572319D02*
X185351031Y-138624700D01*
X185351031Y-138624700D02*
X185246269Y-138677080D01*
X185246269Y-138677080D02*
X185089126Y-138677080D01*
X185927221Y-138677080D02*
X185927221Y-137943747D01*
X185927221Y-138153271D02*
X185979602Y-138048509D01*
X185979602Y-138048509D02*
X186031983Y-137996128D01*
X186031983Y-137996128D02*
X186136745Y-137943747D01*
X186136745Y-137943747D02*
X186241507Y-137943747D01*
X186608173Y-137943747D02*
X186608173Y-138677080D01*
X186608173Y-138048509D02*
X186660554Y-137996128D01*
X186660554Y-137996128D02*
X186765316Y-137943747D01*
X186765316Y-137943747D02*
X186922459Y-137943747D01*
X186922459Y-137943747D02*
X187027221Y-137996128D01*
X187027221Y-137996128D02*
X187079602Y-138100890D01*
X187079602Y-138100890D02*
X187079602Y-138677080D01*
X188389125Y-138624700D02*
X188546268Y-138677080D01*
X188546268Y-138677080D02*
X188808173Y-138677080D01*
X188808173Y-138677080D02*
X188912935Y-138624700D01*
X188912935Y-138624700D02*
X188965316Y-138572319D01*
X188965316Y-138572319D02*
X189017697Y-138467557D01*
X189017697Y-138467557D02*
X189017697Y-138362795D01*
X189017697Y-138362795D02*
X188965316Y-138258033D01*
X188965316Y-138258033D02*
X188912935Y-138205652D01*
X188912935Y-138205652D02*
X188808173Y-138153271D01*
X188808173Y-138153271D02*
X188598649Y-138100890D01*
X188598649Y-138100890D02*
X188493887Y-138048509D01*
X188493887Y-138048509D02*
X188441506Y-137996128D01*
X188441506Y-137996128D02*
X188389125Y-137891366D01*
X188389125Y-137891366D02*
X188389125Y-137786604D01*
X188389125Y-137786604D02*
X188441506Y-137681842D01*
X188441506Y-137681842D02*
X188493887Y-137629461D01*
X188493887Y-137629461D02*
X188598649Y-137577080D01*
X188598649Y-137577080D02*
X188860554Y-137577080D01*
X188860554Y-137577080D02*
X189017697Y-137629461D01*
X189960554Y-137943747D02*
X189960554Y-138677080D01*
X189489125Y-137943747D02*
X189489125Y-138519938D01*
X189489125Y-138519938D02*
X189541506Y-138624700D01*
X189541506Y-138624700D02*
X189646268Y-138677080D01*
X189646268Y-138677080D02*
X189803411Y-138677080D01*
X189803411Y-138677080D02*
X189908173Y-138624700D01*
X189908173Y-138624700D02*
X189960554Y-138572319D01*
X190484363Y-138677080D02*
X190484363Y-137577080D01*
X190589125Y-138258033D02*
X190903411Y-138677080D01*
X190903411Y-137943747D02*
X190484363Y-138362795D01*
X191374839Y-138677080D02*
X191374839Y-137943747D01*
X191374839Y-138048509D02*
X191427220Y-137996128D01*
X191427220Y-137996128D02*
X191531982Y-137943747D01*
X191531982Y-137943747D02*
X191689125Y-137943747D01*
X191689125Y-137943747D02*
X191793887Y-137996128D01*
X191793887Y-137996128D02*
X191846268Y-138100890D01*
X191846268Y-138100890D02*
X191846268Y-138677080D01*
X191846268Y-138100890D02*
X191898649Y-137996128D01*
X191898649Y-137996128D02*
X192003411Y-137943747D01*
X192003411Y-137943747D02*
X192160554Y-137943747D01*
X192160554Y-137943747D02*
X192265315Y-137996128D01*
X192265315Y-137996128D02*
X192317696Y-138100890D01*
X192317696Y-138100890D02*
X192317696Y-138677080D01*
X193260554Y-138624700D02*
X193155792Y-138677080D01*
X193155792Y-138677080D02*
X192946268Y-138677080D01*
X192946268Y-138677080D02*
X192841506Y-138624700D01*
X192841506Y-138624700D02*
X192789125Y-138519938D01*
X192789125Y-138519938D02*
X192789125Y-138100890D01*
X192789125Y-138100890D02*
X192841506Y-137996128D01*
X192841506Y-137996128D02*
X192946268Y-137943747D01*
X192946268Y-137943747D02*
X193155792Y-137943747D01*
X193155792Y-137943747D02*
X193260554Y-137996128D01*
X193260554Y-137996128D02*
X193312935Y-138100890D01*
X193312935Y-138100890D02*
X193312935Y-138205652D01*
X193312935Y-138205652D02*
X192789125Y-138310414D01*
X194203411Y-138624700D02*
X194098649Y-138677080D01*
X194098649Y-138677080D02*
X193889125Y-138677080D01*
X193889125Y-138677080D02*
X193784363Y-138624700D01*
X193784363Y-138624700D02*
X193731982Y-138519938D01*
X193731982Y-138519938D02*
X193731982Y-138100890D01*
X193731982Y-138100890D02*
X193784363Y-137996128D01*
X193784363Y-137996128D02*
X193889125Y-137943747D01*
X193889125Y-137943747D02*
X194098649Y-137943747D01*
X194098649Y-137943747D02*
X194203411Y-137996128D01*
X194203411Y-137996128D02*
X194255792Y-138100890D01*
X194255792Y-138100890D02*
X194255792Y-138205652D01*
X194255792Y-138205652D02*
X193731982Y-138310414D01*
X182051029Y-141217080D02*
X182051029Y-140483747D01*
X182051029Y-140117080D02*
X181998648Y-140169461D01*
X181998648Y-140169461D02*
X182051029Y-140221842D01*
X182051029Y-140221842D02*
X182103410Y-140169461D01*
X182103410Y-140169461D02*
X182051029Y-140117080D01*
X182051029Y-140117080D02*
X182051029Y-140221842D01*
X183046268Y-140483747D02*
X183046268Y-141374223D01*
X183046268Y-141374223D02*
X182993887Y-141478985D01*
X182993887Y-141478985D02*
X182941506Y-141531366D01*
X182941506Y-141531366D02*
X182836744Y-141583747D01*
X182836744Y-141583747D02*
X182679601Y-141583747D01*
X182679601Y-141583747D02*
X182574839Y-141531366D01*
X183046268Y-141164700D02*
X182941506Y-141217080D01*
X182941506Y-141217080D02*
X182731982Y-141217080D01*
X182731982Y-141217080D02*
X182627220Y-141164700D01*
X182627220Y-141164700D02*
X182574839Y-141112319D01*
X182574839Y-141112319D02*
X182522458Y-141007557D01*
X182522458Y-141007557D02*
X182522458Y-140693271D01*
X182522458Y-140693271D02*
X182574839Y-140588509D01*
X182574839Y-140588509D02*
X182627220Y-140536128D01*
X182627220Y-140536128D02*
X182731982Y-140483747D01*
X182731982Y-140483747D02*
X182941506Y-140483747D01*
X182941506Y-140483747D02*
X183046268Y-140536128D01*
X183570077Y-141112319D02*
X183622458Y-141164700D01*
X183622458Y-141164700D02*
X183570077Y-141217080D01*
X183570077Y-141217080D02*
X183517696Y-141164700D01*
X183517696Y-141164700D02*
X183570077Y-141112319D01*
X183570077Y-141112319D02*
X183570077Y-141217080D01*
X183570077Y-140536128D02*
X183622458Y-140588509D01*
X183622458Y-140588509D02*
X183570077Y-140640890D01*
X183570077Y-140640890D02*
X183517696Y-140588509D01*
X183517696Y-140588509D02*
X183570077Y-140536128D01*
X183570077Y-140536128D02*
X183570077Y-140640890D01*
X185403411Y-140483747D02*
X185403411Y-141374223D01*
X185403411Y-141374223D02*
X185351030Y-141478985D01*
X185351030Y-141478985D02*
X185298649Y-141531366D01*
X185298649Y-141531366D02*
X185193887Y-141583747D01*
X185193887Y-141583747D02*
X185036744Y-141583747D01*
X185036744Y-141583747D02*
X184931982Y-141531366D01*
X185403411Y-141164700D02*
X185298649Y-141217080D01*
X185298649Y-141217080D02*
X185089125Y-141217080D01*
X185089125Y-141217080D02*
X184984363Y-141164700D01*
X184984363Y-141164700D02*
X184931982Y-141112319D01*
X184931982Y-141112319D02*
X184879601Y-141007557D01*
X184879601Y-141007557D02*
X184879601Y-140693271D01*
X184879601Y-140693271D02*
X184931982Y-140588509D01*
X184931982Y-140588509D02*
X184984363Y-140536128D01*
X184984363Y-140536128D02*
X185089125Y-140483747D01*
X185089125Y-140483747D02*
X185298649Y-140483747D01*
X185298649Y-140483747D02*
X185403411Y-140536128D01*
X186398649Y-140483747D02*
X186398649Y-141217080D01*
X185927220Y-140483747D02*
X185927220Y-141059938D01*
X185927220Y-141059938D02*
X185979601Y-141164700D01*
X185979601Y-141164700D02*
X186084363Y-141217080D01*
X186084363Y-141217080D02*
X186241506Y-141217080D01*
X186241506Y-141217080D02*
X186346268Y-141164700D01*
X186346268Y-141164700D02*
X186398649Y-141112319D01*
X186922458Y-140483747D02*
X186922458Y-141217080D01*
X186922458Y-140588509D02*
X186974839Y-140536128D01*
X186974839Y-140536128D02*
X187079601Y-140483747D01*
X187079601Y-140483747D02*
X187236744Y-140483747D01*
X187236744Y-140483747D02*
X187341506Y-140536128D01*
X187341506Y-140536128D02*
X187393887Y-140640890D01*
X187393887Y-140640890D02*
X187393887Y-141217080D01*
X187917696Y-141112319D02*
X187970077Y-141164700D01*
X187970077Y-141164700D02*
X187917696Y-141217080D01*
X187917696Y-141217080D02*
X187865315Y-141164700D01*
X187865315Y-141164700D02*
X187917696Y-141112319D01*
X187917696Y-141112319D02*
X187917696Y-141217080D01*
X188441506Y-140483747D02*
X188441506Y-141426604D01*
X188441506Y-141426604D02*
X188389125Y-141531366D01*
X188389125Y-141531366D02*
X188284363Y-141583747D01*
X188284363Y-141583747D02*
X188231982Y-141583747D01*
X188441506Y-140117080D02*
X188389125Y-140169461D01*
X188389125Y-140169461D02*
X188441506Y-140221842D01*
X188441506Y-140221842D02*
X188493887Y-140169461D01*
X188493887Y-140169461D02*
X188441506Y-140117080D01*
X188441506Y-140117080D02*
X188441506Y-140221842D01*
X188965316Y-141217080D02*
X188965316Y-140483747D01*
X188965316Y-140117080D02*
X188912935Y-140169461D01*
X188912935Y-140169461D02*
X188965316Y-140221842D01*
X188965316Y-140221842D02*
X189017697Y-140169461D01*
X189017697Y-140169461D02*
X188965316Y-140117080D01*
X188965316Y-140117080D02*
X188965316Y-140221842D01*
X189489126Y-141217080D02*
X189489126Y-140483747D01*
X189489126Y-140693271D02*
X189541507Y-140588509D01*
X189541507Y-140588509D02*
X189593888Y-140536128D01*
X189593888Y-140536128D02*
X189698650Y-140483747D01*
X189698650Y-140483747D02*
X189803412Y-140483747D01*
X190641507Y-141217080D02*
X190641507Y-140640890D01*
X190641507Y-140640890D02*
X190589126Y-140536128D01*
X190589126Y-140536128D02*
X190484364Y-140483747D01*
X190484364Y-140483747D02*
X190274840Y-140483747D01*
X190274840Y-140483747D02*
X190170078Y-140536128D01*
X190641507Y-141164700D02*
X190536745Y-141217080D01*
X190536745Y-141217080D02*
X190274840Y-141217080D01*
X190274840Y-141217080D02*
X190170078Y-141164700D01*
X190170078Y-141164700D02*
X190117697Y-141059938D01*
X190117697Y-141059938D02*
X190117697Y-140955176D01*
X190117697Y-140955176D02*
X190170078Y-140850414D01*
X190170078Y-140850414D02*
X190274840Y-140798033D01*
X190274840Y-140798033D02*
X190536745Y-140798033D01*
X190536745Y-140798033D02*
X190641507Y-140745652D01*
X191165316Y-141217080D02*
X191165316Y-140117080D01*
X191270078Y-140798033D02*
X191584364Y-141217080D01*
X191584364Y-140483747D02*
X191165316Y-140902795D01*
X192212935Y-141217080D02*
X192108173Y-141164700D01*
X192108173Y-141164700D02*
X192055792Y-141112319D01*
X192055792Y-141112319D02*
X192003411Y-141007557D01*
X192003411Y-141007557D02*
X192003411Y-140693271D01*
X192003411Y-140693271D02*
X192055792Y-140588509D01*
X192055792Y-140588509D02*
X192108173Y-140536128D01*
X192108173Y-140536128D02*
X192212935Y-140483747D01*
X192212935Y-140483747D02*
X192370078Y-140483747D01*
X192370078Y-140483747D02*
X192474840Y-140536128D01*
X192474840Y-140536128D02*
X192527221Y-140588509D01*
X192527221Y-140588509D02*
X192579602Y-140693271D01*
X192579602Y-140693271D02*
X192579602Y-141007557D01*
X192579602Y-141007557D02*
X192527221Y-141112319D01*
X192527221Y-141112319D02*
X192474840Y-141164700D01*
X192474840Y-141164700D02*
X192370078Y-141217080D01*
X192370078Y-141217080D02*
X192212935Y-141217080D01*
X193051030Y-141217080D02*
X193051030Y-140483747D01*
X193051030Y-140693271D02*
X193103411Y-140588509D01*
X193103411Y-140588509D02*
X193155792Y-140536128D01*
X193155792Y-140536128D02*
X193260554Y-140483747D01*
X193260554Y-140483747D02*
X193365316Y-140483747D01*
X193731982Y-140483747D02*
X193731982Y-141217080D01*
X193731982Y-140588509D02*
X193784363Y-140536128D01*
X193784363Y-140536128D02*
X193889125Y-140483747D01*
X193889125Y-140483747D02*
X194046268Y-140483747D01*
X194046268Y-140483747D02*
X194151030Y-140536128D01*
X194151030Y-140536128D02*
X194203411Y-140640890D01*
X194203411Y-140640890D02*
X194203411Y-141217080D01*
X116525383Y-68549439D02*
X117096811Y-68549439D01*
X116811097Y-69549439D02*
X116811097Y-68549439D01*
X117953954Y-69549439D02*
X117382526Y-69549439D01*
X117668240Y-69549439D02*
X117668240Y-68549439D01*
X117668240Y-68549439D02*
X117573002Y-68692296D01*
X117573002Y-68692296D02*
X117477764Y-68787534D01*
X117477764Y-68787534D02*
X117382526Y-68835153D01*
X183539427Y-112214819D02*
X183206094Y-111738628D01*
X182967999Y-112214819D02*
X182967999Y-111214819D01*
X182967999Y-111214819D02*
X183348951Y-111214819D01*
X183348951Y-111214819D02*
X183444189Y-111262438D01*
X183444189Y-111262438D02*
X183491808Y-111310057D01*
X183491808Y-111310057D02*
X183539427Y-111405295D01*
X183539427Y-111405295D02*
X183539427Y-111548152D01*
X183539427Y-111548152D02*
X183491808Y-111643390D01*
X183491808Y-111643390D02*
X183444189Y-111691009D01*
X183444189Y-111691009D02*
X183348951Y-111738628D01*
X183348951Y-111738628D02*
X182967999Y-111738628D01*
X184110856Y-112214819D02*
X184015618Y-112167200D01*
X184015618Y-112167200D02*
X183967999Y-112119580D01*
X183967999Y-112119580D02*
X183920380Y-112024342D01*
X183920380Y-112024342D02*
X183920380Y-111738628D01*
X183920380Y-111738628D02*
X183967999Y-111643390D01*
X183967999Y-111643390D02*
X184015618Y-111595771D01*
X184015618Y-111595771D02*
X184110856Y-111548152D01*
X184110856Y-111548152D02*
X184253713Y-111548152D01*
X184253713Y-111548152D02*
X184348951Y-111595771D01*
X184348951Y-111595771D02*
X184396570Y-111643390D01*
X184396570Y-111643390D02*
X184444189Y-111738628D01*
X184444189Y-111738628D02*
X184444189Y-112024342D01*
X184444189Y-112024342D02*
X184396570Y-112119580D01*
X184396570Y-112119580D02*
X184348951Y-112167200D01*
X184348951Y-112167200D02*
X184253713Y-112214819D01*
X184253713Y-112214819D02*
X184110856Y-112214819D01*
X184729904Y-111548152D02*
X185110856Y-111548152D01*
X184872761Y-111214819D02*
X184872761Y-112071961D01*
X184872761Y-112071961D02*
X184920380Y-112167200D01*
X184920380Y-112167200D02*
X185015618Y-112214819D01*
X185015618Y-112214819D02*
X185110856Y-112214819D01*
X185872761Y-112214819D02*
X185872761Y-111691009D01*
X185872761Y-111691009D02*
X185825142Y-111595771D01*
X185825142Y-111595771D02*
X185729904Y-111548152D01*
X185729904Y-111548152D02*
X185539428Y-111548152D01*
X185539428Y-111548152D02*
X185444190Y-111595771D01*
X185872761Y-112167200D02*
X185777523Y-112214819D01*
X185777523Y-112214819D02*
X185539428Y-112214819D01*
X185539428Y-112214819D02*
X185444190Y-112167200D01*
X185444190Y-112167200D02*
X185396571Y-112071961D01*
X185396571Y-112071961D02*
X185396571Y-111976723D01*
X185396571Y-111976723D02*
X185444190Y-111881485D01*
X185444190Y-111881485D02*
X185539428Y-111833866D01*
X185539428Y-111833866D02*
X185777523Y-111833866D01*
X185777523Y-111833866D02*
X185872761Y-111786247D01*
X186348952Y-112214819D02*
X186348952Y-111548152D01*
X186348952Y-111738628D02*
X186396571Y-111643390D01*
X186396571Y-111643390D02*
X186444190Y-111595771D01*
X186444190Y-111595771D02*
X186539428Y-111548152D01*
X186539428Y-111548152D02*
X186634666Y-111548152D01*
X186872762Y-111548152D02*
X187110857Y-112214819D01*
X187348952Y-111548152D02*
X187110857Y-112214819D01*
X187110857Y-112214819D02*
X187015619Y-112452914D01*
X187015619Y-112452914D02*
X186968000Y-112500533D01*
X186968000Y-112500533D02*
X186872762Y-112548152D01*
X188491810Y-111691009D02*
X188825143Y-111691009D01*
X188968000Y-112214819D02*
X188491810Y-112214819D01*
X188491810Y-112214819D02*
X188491810Y-111214819D01*
X188491810Y-111214819D02*
X188968000Y-111214819D01*
X189396572Y-111548152D02*
X189396572Y-112214819D01*
X189396572Y-111643390D02*
X189444191Y-111595771D01*
X189444191Y-111595771D02*
X189539429Y-111548152D01*
X189539429Y-111548152D02*
X189682286Y-111548152D01*
X189682286Y-111548152D02*
X189777524Y-111595771D01*
X189777524Y-111595771D02*
X189825143Y-111691009D01*
X189825143Y-111691009D02*
X189825143Y-112214819D01*
X190729905Y-112167200D02*
X190634667Y-112214819D01*
X190634667Y-112214819D02*
X190444191Y-112214819D01*
X190444191Y-112214819D02*
X190348953Y-112167200D01*
X190348953Y-112167200D02*
X190301334Y-112119580D01*
X190301334Y-112119580D02*
X190253715Y-112024342D01*
X190253715Y-112024342D02*
X190253715Y-111738628D01*
X190253715Y-111738628D02*
X190301334Y-111643390D01*
X190301334Y-111643390D02*
X190348953Y-111595771D01*
X190348953Y-111595771D02*
X190444191Y-111548152D01*
X190444191Y-111548152D02*
X190634667Y-111548152D01*
X190634667Y-111548152D02*
X190729905Y-111595771D01*
X191301334Y-112214819D02*
X191206096Y-112167200D01*
X191206096Y-112167200D02*
X191158477Y-112119580D01*
X191158477Y-112119580D02*
X191110858Y-112024342D01*
X191110858Y-112024342D02*
X191110858Y-111738628D01*
X191110858Y-111738628D02*
X191158477Y-111643390D01*
X191158477Y-111643390D02*
X191206096Y-111595771D01*
X191206096Y-111595771D02*
X191301334Y-111548152D01*
X191301334Y-111548152D02*
X191444191Y-111548152D01*
X191444191Y-111548152D02*
X191539429Y-111595771D01*
X191539429Y-111595771D02*
X191587048Y-111643390D01*
X191587048Y-111643390D02*
X191634667Y-111738628D01*
X191634667Y-111738628D02*
X191634667Y-112024342D01*
X191634667Y-112024342D02*
X191587048Y-112119580D01*
X191587048Y-112119580D02*
X191539429Y-112167200D01*
X191539429Y-112167200D02*
X191444191Y-112214819D01*
X191444191Y-112214819D02*
X191301334Y-112214819D01*
X192491810Y-112214819D02*
X192491810Y-111214819D01*
X192491810Y-112167200D02*
X192396572Y-112214819D01*
X192396572Y-112214819D02*
X192206096Y-112214819D01*
X192206096Y-112214819D02*
X192110858Y-112167200D01*
X192110858Y-112167200D02*
X192063239Y-112119580D01*
X192063239Y-112119580D02*
X192015620Y-112024342D01*
X192015620Y-112024342D02*
X192015620Y-111738628D01*
X192015620Y-111738628D02*
X192063239Y-111643390D01*
X192063239Y-111643390D02*
X192110858Y-111595771D01*
X192110858Y-111595771D02*
X192206096Y-111548152D01*
X192206096Y-111548152D02*
X192396572Y-111548152D01*
X192396572Y-111548152D02*
X192491810Y-111595771D01*
X193348953Y-112167200D02*
X193253715Y-112214819D01*
X193253715Y-112214819D02*
X193063239Y-112214819D01*
X193063239Y-112214819D02*
X192968001Y-112167200D01*
X192968001Y-112167200D02*
X192920382Y-112071961D01*
X192920382Y-112071961D02*
X192920382Y-111691009D01*
X192920382Y-111691009D02*
X192968001Y-111595771D01*
X192968001Y-111595771D02*
X193063239Y-111548152D01*
X193063239Y-111548152D02*
X193253715Y-111548152D01*
X193253715Y-111548152D02*
X193348953Y-111595771D01*
X193348953Y-111595771D02*
X193396572Y-111691009D01*
X193396572Y-111691009D02*
X193396572Y-111786247D01*
X193396572Y-111786247D02*
X192920382Y-111881485D01*
X193825144Y-112214819D02*
X193825144Y-111548152D01*
X193825144Y-111738628D02*
X193872763Y-111643390D01*
X193872763Y-111643390D02*
X193920382Y-111595771D01*
X193920382Y-111595771D02*
X194015620Y-111548152D01*
X194015620Y-111548152D02*
X194110858Y-111548152D01*
X179356364Y-131151238D02*
X179356364Y-131722666D01*
X179356364Y-131436952D02*
X178356364Y-131436952D01*
X178356364Y-131436952D02*
X178499221Y-131532190D01*
X178499221Y-131532190D02*
X178594459Y-131627428D01*
X178594459Y-131627428D02*
X178642078Y-131722666D01*
X178356364Y-130532190D02*
X178356364Y-130436952D01*
X178356364Y-130436952D02*
X178403983Y-130341714D01*
X178403983Y-130341714D02*
X178451602Y-130294095D01*
X178451602Y-130294095D02*
X178546840Y-130246476D01*
X178546840Y-130246476D02*
X178737316Y-130198857D01*
X178737316Y-130198857D02*
X178975411Y-130198857D01*
X178975411Y-130198857D02*
X179165887Y-130246476D01*
X179165887Y-130246476D02*
X179261125Y-130294095D01*
X179261125Y-130294095D02*
X179308745Y-130341714D01*
X179308745Y-130341714D02*
X179356364Y-130436952D01*
X179356364Y-130436952D02*
X179356364Y-130532190D01*
X179356364Y-130532190D02*
X179308745Y-130627428D01*
X179308745Y-130627428D02*
X179261125Y-130675047D01*
X179261125Y-130675047D02*
X179165887Y-130722666D01*
X179165887Y-130722666D02*
X178975411Y-130770285D01*
X178975411Y-130770285D02*
X178737316Y-130770285D01*
X178737316Y-130770285D02*
X178546840Y-130722666D01*
X178546840Y-130722666D02*
X178451602Y-130675047D01*
X178451602Y-130675047D02*
X178403983Y-130627428D01*
X178403983Y-130627428D02*
X178356364Y-130532190D01*
X179356364Y-129770285D02*
X178356364Y-129770285D01*
X178975411Y-129675047D02*
X179356364Y-129389333D01*
X178689697Y-129389333D02*
X179070649Y-129770285D01*
X97385238Y-121411009D02*
X97528095Y-121458628D01*
X97528095Y-121458628D02*
X97575714Y-121506247D01*
X97575714Y-121506247D02*
X97623333Y-121601485D01*
X97623333Y-121601485D02*
X97623333Y-121744342D01*
X97623333Y-121744342D02*
X97575714Y-121839580D01*
X97575714Y-121839580D02*
X97528095Y-121887200D01*
X97528095Y-121887200D02*
X97432857Y-121934819D01*
X97432857Y-121934819D02*
X97051905Y-121934819D01*
X97051905Y-121934819D02*
X97051905Y-120934819D01*
X97051905Y-120934819D02*
X97385238Y-120934819D01*
X97385238Y-120934819D02*
X97480476Y-120982438D01*
X97480476Y-120982438D02*
X97528095Y-121030057D01*
X97528095Y-121030057D02*
X97575714Y-121125295D01*
X97575714Y-121125295D02*
X97575714Y-121220533D01*
X97575714Y-121220533D02*
X97528095Y-121315771D01*
X97528095Y-121315771D02*
X97480476Y-121363390D01*
X97480476Y-121363390D02*
X97385238Y-121411009D01*
X97385238Y-121411009D02*
X97051905Y-121411009D01*
X97956667Y-120934819D02*
X98575714Y-120934819D01*
X98575714Y-120934819D02*
X98242381Y-121315771D01*
X98242381Y-121315771D02*
X98385238Y-121315771D01*
X98385238Y-121315771D02*
X98480476Y-121363390D01*
X98480476Y-121363390D02*
X98528095Y-121411009D01*
X98528095Y-121411009D02*
X98575714Y-121506247D01*
X98575714Y-121506247D02*
X98575714Y-121744342D01*
X98575714Y-121744342D02*
X98528095Y-121839580D01*
X98528095Y-121839580D02*
X98480476Y-121887200D01*
X98480476Y-121887200D02*
X98385238Y-121934819D01*
X98385238Y-121934819D02*
X98099524Y-121934819D01*
X98099524Y-121934819D02*
X98004286Y-121887200D01*
X98004286Y-121887200D02*
X97956667Y-121839580D01*
X140300015Y-66494819D02*
X140300015Y-65494819D01*
X140300015Y-65971009D02*
X140871443Y-65971009D01*
X140871443Y-66494819D02*
X140871443Y-65494819D01*
X141395253Y-66494819D02*
X141585729Y-66494819D01*
X141585729Y-66494819D02*
X141680967Y-66447200D01*
X141680967Y-66447200D02*
X141728586Y-66399580D01*
X141728586Y-66399580D02*
X141823824Y-66256723D01*
X141823824Y-66256723D02*
X141871443Y-66066247D01*
X141871443Y-66066247D02*
X141871443Y-65685295D01*
X141871443Y-65685295D02*
X141823824Y-65590057D01*
X141823824Y-65590057D02*
X141776205Y-65542438D01*
X141776205Y-65542438D02*
X141680967Y-65494819D01*
X141680967Y-65494819D02*
X141490491Y-65494819D01*
X141490491Y-65494819D02*
X141395253Y-65542438D01*
X141395253Y-65542438D02*
X141347634Y-65590057D01*
X141347634Y-65590057D02*
X141300015Y-65685295D01*
X141300015Y-65685295D02*
X141300015Y-65923390D01*
X141300015Y-65923390D02*
X141347634Y-66018628D01*
X141347634Y-66018628D02*
X141395253Y-66066247D01*
X141395253Y-66066247D02*
X141490491Y-66113866D01*
X141490491Y-66113866D02*
X141680967Y-66113866D01*
X141680967Y-66113866D02*
X141776205Y-66066247D01*
X141776205Y-66066247D02*
X141823824Y-66018628D01*
X141823824Y-66018628D02*
X141871443Y-65923390D01*
X148564297Y-68511579D02*
X149135725Y-68511579D01*
X148850011Y-69511579D02*
X148850011Y-68511579D01*
X149373821Y-68511579D02*
X149992868Y-68511579D01*
X149992868Y-68511579D02*
X149659535Y-68892531D01*
X149659535Y-68892531D02*
X149802392Y-68892531D01*
X149802392Y-68892531D02*
X149897630Y-68940150D01*
X149897630Y-68940150D02*
X149945249Y-68987769D01*
X149945249Y-68987769D02*
X149992868Y-69083007D01*
X149992868Y-69083007D02*
X149992868Y-69321102D01*
X149992868Y-69321102D02*
X149945249Y-69416340D01*
X149945249Y-69416340D02*
X149897630Y-69463960D01*
X149897630Y-69463960D02*
X149802392Y-69511579D01*
X149802392Y-69511579D02*
X149516678Y-69511579D01*
X149516678Y-69511579D02*
X149421440Y-69463960D01*
X149421440Y-69463960D02*
X149373821Y-69416340D01*
D11*
X96234286Y-63052657D02*
X96281905Y-63005038D01*
X96281905Y-63005038D02*
X96377143Y-62957419D01*
X96377143Y-62957419D02*
X96615238Y-62957419D01*
X96615238Y-62957419D02*
X96710476Y-63005038D01*
X96710476Y-63005038D02*
X96758095Y-63052657D01*
X96758095Y-63052657D02*
X96805714Y-63147895D01*
X96805714Y-63147895D02*
X96805714Y-63243133D01*
X96805714Y-63243133D02*
X96758095Y-63385990D01*
X96758095Y-63385990D02*
X96186667Y-63957419D01*
X96186667Y-63957419D02*
X96805714Y-63957419D01*
D10*
X97385238Y-131231009D02*
X97528095Y-131278628D01*
X97528095Y-131278628D02*
X97575714Y-131326247D01*
X97575714Y-131326247D02*
X97623333Y-131421485D01*
X97623333Y-131421485D02*
X97623333Y-131564342D01*
X97623333Y-131564342D02*
X97575714Y-131659580D01*
X97575714Y-131659580D02*
X97528095Y-131707200D01*
X97528095Y-131707200D02*
X97432857Y-131754819D01*
X97432857Y-131754819D02*
X97051905Y-131754819D01*
X97051905Y-131754819D02*
X97051905Y-130754819D01*
X97051905Y-130754819D02*
X97385238Y-130754819D01*
X97385238Y-130754819D02*
X97480476Y-130802438D01*
X97480476Y-130802438D02*
X97528095Y-130850057D01*
X97528095Y-130850057D02*
X97575714Y-130945295D01*
X97575714Y-130945295D02*
X97575714Y-131040533D01*
X97575714Y-131040533D02*
X97528095Y-131135771D01*
X97528095Y-131135771D02*
X97480476Y-131183390D01*
X97480476Y-131183390D02*
X97385238Y-131231009D01*
X97385238Y-131231009D02*
X97051905Y-131231009D01*
X98480476Y-131088152D02*
X98480476Y-131754819D01*
X98242381Y-130707200D02*
X98004286Y-131421485D01*
X98004286Y-131421485D02*
X98623333Y-131421485D01*
X97385238Y-111251009D02*
X97528095Y-111298628D01*
X97528095Y-111298628D02*
X97575714Y-111346247D01*
X97575714Y-111346247D02*
X97623333Y-111441485D01*
X97623333Y-111441485D02*
X97623333Y-111584342D01*
X97623333Y-111584342D02*
X97575714Y-111679580D01*
X97575714Y-111679580D02*
X97528095Y-111727200D01*
X97528095Y-111727200D02*
X97432857Y-111774819D01*
X97432857Y-111774819D02*
X97051905Y-111774819D01*
X97051905Y-111774819D02*
X97051905Y-110774819D01*
X97051905Y-110774819D02*
X97385238Y-110774819D01*
X97385238Y-110774819D02*
X97480476Y-110822438D01*
X97480476Y-110822438D02*
X97528095Y-110870057D01*
X97528095Y-110870057D02*
X97575714Y-110965295D01*
X97575714Y-110965295D02*
X97575714Y-111060533D01*
X97575714Y-111060533D02*
X97528095Y-111155771D01*
X97528095Y-111155771D02*
X97480476Y-111203390D01*
X97480476Y-111203390D02*
X97385238Y-111251009D01*
X97385238Y-111251009D02*
X97051905Y-111251009D01*
X98004286Y-110870057D02*
X98051905Y-110822438D01*
X98051905Y-110822438D02*
X98147143Y-110774819D01*
X98147143Y-110774819D02*
X98385238Y-110774819D01*
X98385238Y-110774819D02*
X98480476Y-110822438D01*
X98480476Y-110822438D02*
X98528095Y-110870057D01*
X98528095Y-110870057D02*
X98575714Y-110965295D01*
X98575714Y-110965295D02*
X98575714Y-111060533D01*
X98575714Y-111060533D02*
X98528095Y-111203390D01*
X98528095Y-111203390D02*
X97956667Y-111774819D01*
X97956667Y-111774819D02*
X98575714Y-111774819D01*
X97385238Y-101091009D02*
X97528095Y-101138628D01*
X97528095Y-101138628D02*
X97575714Y-101186247D01*
X97575714Y-101186247D02*
X97623333Y-101281485D01*
X97623333Y-101281485D02*
X97623333Y-101424342D01*
X97623333Y-101424342D02*
X97575714Y-101519580D01*
X97575714Y-101519580D02*
X97528095Y-101567200D01*
X97528095Y-101567200D02*
X97432857Y-101614819D01*
X97432857Y-101614819D02*
X97051905Y-101614819D01*
X97051905Y-101614819D02*
X97051905Y-100614819D01*
X97051905Y-100614819D02*
X97385238Y-100614819D01*
X97385238Y-100614819D02*
X97480476Y-100662438D01*
X97480476Y-100662438D02*
X97528095Y-100710057D01*
X97528095Y-100710057D02*
X97575714Y-100805295D01*
X97575714Y-100805295D02*
X97575714Y-100900533D01*
X97575714Y-100900533D02*
X97528095Y-100995771D01*
X97528095Y-100995771D02*
X97480476Y-101043390D01*
X97480476Y-101043390D02*
X97385238Y-101091009D01*
X97385238Y-101091009D02*
X97051905Y-101091009D01*
X98575714Y-101614819D02*
X98004286Y-101614819D01*
X98290000Y-101614819D02*
X98290000Y-100614819D01*
X98290000Y-100614819D02*
X98194762Y-100757676D01*
X98194762Y-100757676D02*
X98099524Y-100852914D01*
X98099524Y-100852914D02*
X98004286Y-100900533D01*
D11*
X89693714Y-63957419D02*
X89122286Y-63957419D01*
X89408000Y-63957419D02*
X89408000Y-62957419D01*
X89408000Y-62957419D02*
X89312762Y-63100276D01*
X89312762Y-63100276D02*
X89217524Y-63195514D01*
X89217524Y-63195514D02*
X89122286Y-63243133D01*
D10*
X136973911Y-72289181D02*
X136973911Y-71289181D01*
X136973911Y-71289181D02*
X137307244Y-72003466D01*
X137307244Y-72003466D02*
X137640577Y-71289181D01*
X137640577Y-71289181D02*
X137640577Y-72289181D01*
X138545339Y-72289181D02*
X138545339Y-71765371D01*
X138545339Y-71765371D02*
X138497720Y-71670133D01*
X138497720Y-71670133D02*
X138402482Y-71622514D01*
X138402482Y-71622514D02*
X138212006Y-71622514D01*
X138212006Y-71622514D02*
X138116768Y-71670133D01*
X138545339Y-72241562D02*
X138450101Y-72289181D01*
X138450101Y-72289181D02*
X138212006Y-72289181D01*
X138212006Y-72289181D02*
X138116768Y-72241562D01*
X138116768Y-72241562D02*
X138069149Y-72146323D01*
X138069149Y-72146323D02*
X138069149Y-72051085D01*
X138069149Y-72051085D02*
X138116768Y-71955847D01*
X138116768Y-71955847D02*
X138212006Y-71908228D01*
X138212006Y-71908228D02*
X138450101Y-71908228D01*
X138450101Y-71908228D02*
X138545339Y-71860609D01*
X139021530Y-72289181D02*
X139021530Y-71622514D01*
X139021530Y-71289181D02*
X138973911Y-71336800D01*
X138973911Y-71336800D02*
X139021530Y-71384419D01*
X139021530Y-71384419D02*
X139069149Y-71336800D01*
X139069149Y-71336800D02*
X139021530Y-71289181D01*
X139021530Y-71289181D02*
X139021530Y-71384419D01*
X139497720Y-71622514D02*
X139497720Y-72289181D01*
X139497720Y-71717752D02*
X139545339Y-71670133D01*
X139545339Y-71670133D02*
X139640577Y-71622514D01*
X139640577Y-71622514D02*
X139783434Y-71622514D01*
X139783434Y-71622514D02*
X139878672Y-71670133D01*
X139878672Y-71670133D02*
X139926291Y-71765371D01*
X139926291Y-71765371D02*
X139926291Y-72289181D01*
X141164387Y-72289181D02*
X141164387Y-71289181D01*
X141164387Y-71289181D02*
X141545339Y-71289181D01*
X141545339Y-71289181D02*
X141640577Y-71336800D01*
X141640577Y-71336800D02*
X141688196Y-71384419D01*
X141688196Y-71384419D02*
X141735815Y-71479657D01*
X141735815Y-71479657D02*
X141735815Y-71622514D01*
X141735815Y-71622514D02*
X141688196Y-71717752D01*
X141688196Y-71717752D02*
X141640577Y-71765371D01*
X141640577Y-71765371D02*
X141545339Y-71812990D01*
X141545339Y-71812990D02*
X141164387Y-71812990D01*
X142307244Y-72289181D02*
X142212006Y-72241562D01*
X142212006Y-72241562D02*
X142164387Y-72193942D01*
X142164387Y-72193942D02*
X142116768Y-72098704D01*
X142116768Y-72098704D02*
X142116768Y-71812990D01*
X142116768Y-71812990D02*
X142164387Y-71717752D01*
X142164387Y-71717752D02*
X142212006Y-71670133D01*
X142212006Y-71670133D02*
X142307244Y-71622514D01*
X142307244Y-71622514D02*
X142450101Y-71622514D01*
X142450101Y-71622514D02*
X142545339Y-71670133D01*
X142545339Y-71670133D02*
X142592958Y-71717752D01*
X142592958Y-71717752D02*
X142640577Y-71812990D01*
X142640577Y-71812990D02*
X142640577Y-72098704D01*
X142640577Y-72098704D02*
X142592958Y-72193942D01*
X142592958Y-72193942D02*
X142545339Y-72241562D01*
X142545339Y-72241562D02*
X142450101Y-72289181D01*
X142450101Y-72289181D02*
X142307244Y-72289181D01*
X142973911Y-71622514D02*
X143164387Y-72289181D01*
X143164387Y-72289181D02*
X143354863Y-71812990D01*
X143354863Y-71812990D02*
X143545339Y-72289181D01*
X143545339Y-72289181D02*
X143735815Y-71622514D01*
X144497720Y-72241562D02*
X144402482Y-72289181D01*
X144402482Y-72289181D02*
X144212006Y-72289181D01*
X144212006Y-72289181D02*
X144116768Y-72241562D01*
X144116768Y-72241562D02*
X144069149Y-72146323D01*
X144069149Y-72146323D02*
X144069149Y-71765371D01*
X144069149Y-71765371D02*
X144116768Y-71670133D01*
X144116768Y-71670133D02*
X144212006Y-71622514D01*
X144212006Y-71622514D02*
X144402482Y-71622514D01*
X144402482Y-71622514D02*
X144497720Y-71670133D01*
X144497720Y-71670133D02*
X144545339Y-71765371D01*
X144545339Y-71765371D02*
X144545339Y-71860609D01*
X144545339Y-71860609D02*
X144069149Y-71955847D01*
X144973911Y-72289181D02*
X144973911Y-71622514D01*
X144973911Y-71812990D02*
X145021530Y-71717752D01*
X145021530Y-71717752D02*
X145069149Y-71670133D01*
X145069149Y-71670133D02*
X145164387Y-71622514D01*
X145164387Y-71622514D02*
X145259625Y-71622514D01*
X163973192Y-68549439D02*
X164544620Y-68549439D01*
X164258906Y-69549439D02*
X164258906Y-68549439D01*
X165306525Y-68882772D02*
X165306525Y-69549439D01*
X165068430Y-68501820D02*
X164830335Y-69216105D01*
X164830335Y-69216105D02*
X165449382Y-69216105D01*
X125571809Y-81734819D02*
X125571809Y-80734819D01*
X125571809Y-80734819D02*
X125952761Y-80734819D01*
X125952761Y-80734819D02*
X126047999Y-80782438D01*
X126047999Y-80782438D02*
X126095618Y-80830057D01*
X126095618Y-80830057D02*
X126143237Y-80925295D01*
X126143237Y-80925295D02*
X126143237Y-81068152D01*
X126143237Y-81068152D02*
X126095618Y-81163390D01*
X126095618Y-81163390D02*
X126047999Y-81211009D01*
X126047999Y-81211009D02*
X125952761Y-81258628D01*
X125952761Y-81258628D02*
X125571809Y-81258628D01*
X126714666Y-81734819D02*
X126619428Y-81687200D01*
X126619428Y-81687200D02*
X126571809Y-81639580D01*
X126571809Y-81639580D02*
X126524190Y-81544342D01*
X126524190Y-81544342D02*
X126524190Y-81258628D01*
X126524190Y-81258628D02*
X126571809Y-81163390D01*
X126571809Y-81163390D02*
X126619428Y-81115771D01*
X126619428Y-81115771D02*
X126714666Y-81068152D01*
X126714666Y-81068152D02*
X126857523Y-81068152D01*
X126857523Y-81068152D02*
X126952761Y-81115771D01*
X126952761Y-81115771D02*
X127000380Y-81163390D01*
X127000380Y-81163390D02*
X127047999Y-81258628D01*
X127047999Y-81258628D02*
X127047999Y-81544342D01*
X127047999Y-81544342D02*
X127000380Y-81639580D01*
X127000380Y-81639580D02*
X126952761Y-81687200D01*
X126952761Y-81687200D02*
X126857523Y-81734819D01*
X126857523Y-81734819D02*
X126714666Y-81734819D01*
X127333714Y-81068152D02*
X127714666Y-81068152D01*
X127476571Y-80734819D02*
X127476571Y-81591961D01*
X127476571Y-81591961D02*
X127524190Y-81687200D01*
X127524190Y-81687200D02*
X127619428Y-81734819D01*
X127619428Y-81734819D02*
X127714666Y-81734819D01*
X128571809Y-81734819D02*
X128000381Y-81734819D01*
X128286095Y-81734819D02*
X128286095Y-80734819D01*
X128286095Y-80734819D02*
X128190857Y-80877676D01*
X128190857Y-80877676D02*
X128095619Y-80972914D01*
X128095619Y-80972914D02*
X128000381Y-81020533D01*
D11*
X186102667Y-62957419D02*
X186721714Y-62957419D01*
X186721714Y-62957419D02*
X186388381Y-63338371D01*
X186388381Y-63338371D02*
X186531238Y-63338371D01*
X186531238Y-63338371D02*
X186626476Y-63385990D01*
X186626476Y-63385990D02*
X186674095Y-63433609D01*
X186674095Y-63433609D02*
X186721714Y-63528847D01*
X186721714Y-63528847D02*
X186721714Y-63766942D01*
X186721714Y-63766942D02*
X186674095Y-63862180D01*
X186674095Y-63862180D02*
X186626476Y-63909800D01*
X186626476Y-63909800D02*
X186531238Y-63957419D01*
X186531238Y-63957419D02*
X186245524Y-63957419D01*
X186245524Y-63957419D02*
X186150286Y-63909800D01*
X186150286Y-63909800D02*
X186102667Y-63862180D01*
D10*
X131858559Y-68511579D02*
X132429987Y-68511579D01*
X132144273Y-69511579D02*
X132144273Y-68511579D01*
X132715702Y-68606817D02*
X132763321Y-68559198D01*
X132763321Y-68559198D02*
X132858559Y-68511579D01*
X132858559Y-68511579D02*
X133096654Y-68511579D01*
X133096654Y-68511579D02*
X133191892Y-68559198D01*
X133191892Y-68559198D02*
X133239511Y-68606817D01*
X133239511Y-68606817D02*
X133287130Y-68702055D01*
X133287130Y-68702055D02*
X133287130Y-68797293D01*
X133287130Y-68797293D02*
X133239511Y-68940150D01*
X133239511Y-68940150D02*
X132668083Y-69511579D01*
X132668083Y-69511579D02*
X133287130Y-69511579D01*
X153415809Y-81734819D02*
X153415809Y-80734819D01*
X153415809Y-80734819D02*
X153796761Y-80734819D01*
X153796761Y-80734819D02*
X153891999Y-80782438D01*
X153891999Y-80782438D02*
X153939618Y-80830057D01*
X153939618Y-80830057D02*
X153987237Y-80925295D01*
X153987237Y-80925295D02*
X153987237Y-81068152D01*
X153987237Y-81068152D02*
X153939618Y-81163390D01*
X153939618Y-81163390D02*
X153891999Y-81211009D01*
X153891999Y-81211009D02*
X153796761Y-81258628D01*
X153796761Y-81258628D02*
X153415809Y-81258628D01*
X154558666Y-81734819D02*
X154463428Y-81687200D01*
X154463428Y-81687200D02*
X154415809Y-81639580D01*
X154415809Y-81639580D02*
X154368190Y-81544342D01*
X154368190Y-81544342D02*
X154368190Y-81258628D01*
X154368190Y-81258628D02*
X154415809Y-81163390D01*
X154415809Y-81163390D02*
X154463428Y-81115771D01*
X154463428Y-81115771D02*
X154558666Y-81068152D01*
X154558666Y-81068152D02*
X154701523Y-81068152D01*
X154701523Y-81068152D02*
X154796761Y-81115771D01*
X154796761Y-81115771D02*
X154844380Y-81163390D01*
X154844380Y-81163390D02*
X154891999Y-81258628D01*
X154891999Y-81258628D02*
X154891999Y-81544342D01*
X154891999Y-81544342D02*
X154844380Y-81639580D01*
X154844380Y-81639580D02*
X154796761Y-81687200D01*
X154796761Y-81687200D02*
X154701523Y-81734819D01*
X154701523Y-81734819D02*
X154558666Y-81734819D01*
X155177714Y-81068152D02*
X155558666Y-81068152D01*
X155320571Y-80734819D02*
X155320571Y-81591961D01*
X155320571Y-81591961D02*
X155368190Y-81687200D01*
X155368190Y-81687200D02*
X155463428Y-81734819D01*
X155463428Y-81734819D02*
X155558666Y-81734819D01*
X155844381Y-80830057D02*
X155892000Y-80782438D01*
X155892000Y-80782438D02*
X155987238Y-80734819D01*
X155987238Y-80734819D02*
X156225333Y-80734819D01*
X156225333Y-80734819D02*
X156320571Y-80782438D01*
X156320571Y-80782438D02*
X156368190Y-80830057D01*
X156368190Y-80830057D02*
X156415809Y-80925295D01*
X156415809Y-80925295D02*
X156415809Y-81020533D01*
X156415809Y-81020533D02*
X156368190Y-81163390D01*
X156368190Y-81163390D02*
X155796762Y-81734819D01*
X155796762Y-81734819D02*
X156415809Y-81734819D01*
X188414819Y-131151238D02*
X188414819Y-131722666D01*
X188414819Y-131436952D02*
X187414819Y-131436952D01*
X187414819Y-131436952D02*
X187557676Y-131532190D01*
X187557676Y-131532190D02*
X187652914Y-131627428D01*
X187652914Y-131627428D02*
X187700533Y-131722666D01*
X187414819Y-130532190D02*
X187414819Y-130436952D01*
X187414819Y-130436952D02*
X187462438Y-130341714D01*
X187462438Y-130341714D02*
X187510057Y-130294095D01*
X187510057Y-130294095D02*
X187605295Y-130246476D01*
X187605295Y-130246476D02*
X187795771Y-130198857D01*
X187795771Y-130198857D02*
X188033866Y-130198857D01*
X188033866Y-130198857D02*
X188224342Y-130246476D01*
X188224342Y-130246476D02*
X188319580Y-130294095D01*
X188319580Y-130294095D02*
X188367200Y-130341714D01*
X188367200Y-130341714D02*
X188414819Y-130436952D01*
X188414819Y-130436952D02*
X188414819Y-130532190D01*
X188414819Y-130532190D02*
X188367200Y-130627428D01*
X188367200Y-130627428D02*
X188319580Y-130675047D01*
X188319580Y-130675047D02*
X188224342Y-130722666D01*
X188224342Y-130722666D02*
X188033866Y-130770285D01*
X188033866Y-130770285D02*
X187795771Y-130770285D01*
X187795771Y-130770285D02*
X187605295Y-130722666D01*
X187605295Y-130722666D02*
X187510057Y-130675047D01*
X187510057Y-130675047D02*
X187462438Y-130627428D01*
X187462438Y-130627428D02*
X187414819Y-130532190D01*
X188414819Y-129770285D02*
X187414819Y-129770285D01*
X188033866Y-129675047D02*
X188414819Y-129389333D01*
X187748152Y-129389333D02*
X188129104Y-129770285D01*
D12*
X93790333Y-74979318D02*
X93790333Y-75886461D01*
X93790333Y-75886461D02*
X93729856Y-76067889D01*
X93729856Y-76067889D02*
X93608904Y-76188842D01*
X93608904Y-76188842D02*
X93427475Y-76249318D01*
X93427475Y-76249318D02*
X93306523Y-76249318D01*
X94576523Y-76249318D02*
X94455571Y-76188842D01*
X94455571Y-76188842D02*
X94395094Y-76128365D01*
X94395094Y-76128365D02*
X94334618Y-76007413D01*
X94334618Y-76007413D02*
X94334618Y-75644556D01*
X94334618Y-75644556D02*
X94395094Y-75523603D01*
X94395094Y-75523603D02*
X94455571Y-75463127D01*
X94455571Y-75463127D02*
X94576523Y-75402651D01*
X94576523Y-75402651D02*
X94757952Y-75402651D01*
X94757952Y-75402651D02*
X94878904Y-75463127D01*
X94878904Y-75463127D02*
X94939380Y-75523603D01*
X94939380Y-75523603D02*
X94999856Y-75644556D01*
X94999856Y-75644556D02*
X94999856Y-76007413D01*
X94999856Y-76007413D02*
X94939380Y-76128365D01*
X94939380Y-76128365D02*
X94878904Y-76188842D01*
X94878904Y-76188842D02*
X94757952Y-76249318D01*
X94757952Y-76249318D02*
X94576523Y-76249318D01*
X95423190Y-75402651D02*
X95725571Y-76249318D01*
X96027952Y-75402651D02*
X95725571Y-76249318D01*
X95725571Y-76249318D02*
X95604619Y-76551699D01*
X95604619Y-76551699D02*
X95544142Y-76612175D01*
X95544142Y-76612175D02*
X95423190Y-76672651D01*
X97177000Y-76249318D02*
X96451285Y-76249318D01*
X96814142Y-76249318D02*
X96814142Y-74979318D01*
X96814142Y-74979318D02*
X96693190Y-75160746D01*
X96693190Y-75160746D02*
X96572238Y-75281699D01*
X96572238Y-75281699D02*
X96451285Y-75342175D01*
D11*
X194246476Y-63290752D02*
X194246476Y-63957419D01*
X194008381Y-62909800D02*
X193770286Y-63624085D01*
X193770286Y-63624085D02*
X194389333Y-63624085D01*
D12*
X182060333Y-74979318D02*
X182060333Y-75886461D01*
X182060333Y-75886461D02*
X181999856Y-76067889D01*
X181999856Y-76067889D02*
X181878904Y-76188842D01*
X181878904Y-76188842D02*
X181697475Y-76249318D01*
X181697475Y-76249318D02*
X181576523Y-76249318D01*
X182846523Y-76249318D02*
X182725571Y-76188842D01*
X182725571Y-76188842D02*
X182665094Y-76128365D01*
X182665094Y-76128365D02*
X182604618Y-76007413D01*
X182604618Y-76007413D02*
X182604618Y-75644556D01*
X182604618Y-75644556D02*
X182665094Y-75523603D01*
X182665094Y-75523603D02*
X182725571Y-75463127D01*
X182725571Y-75463127D02*
X182846523Y-75402651D01*
X182846523Y-75402651D02*
X183027952Y-75402651D01*
X183027952Y-75402651D02*
X183148904Y-75463127D01*
X183148904Y-75463127D02*
X183209380Y-75523603D01*
X183209380Y-75523603D02*
X183269856Y-75644556D01*
X183269856Y-75644556D02*
X183269856Y-76007413D01*
X183269856Y-76007413D02*
X183209380Y-76128365D01*
X183209380Y-76128365D02*
X183148904Y-76188842D01*
X183148904Y-76188842D02*
X183027952Y-76249318D01*
X183027952Y-76249318D02*
X182846523Y-76249318D01*
X183693190Y-75402651D02*
X183995571Y-76249318D01*
X184297952Y-75402651D02*
X183995571Y-76249318D01*
X183995571Y-76249318D02*
X183874619Y-76551699D01*
X183874619Y-76551699D02*
X183814142Y-76612175D01*
X183814142Y-76612175D02*
X183693190Y-76672651D01*
X184721285Y-75100270D02*
X184781761Y-75039794D01*
X184781761Y-75039794D02*
X184902714Y-74979318D01*
X184902714Y-74979318D02*
X185205095Y-74979318D01*
X185205095Y-74979318D02*
X185326047Y-75039794D01*
X185326047Y-75039794D02*
X185386523Y-75100270D01*
X185386523Y-75100270D02*
X185447000Y-75221222D01*
X185447000Y-75221222D02*
X185447000Y-75342175D01*
X185447000Y-75342175D02*
X185386523Y-75523603D01*
X185386523Y-75523603D02*
X184660809Y-76249318D01*
X184660809Y-76249318D02*
X185447000Y-76249318D01*
D13*
%TO.C,Rotary Encoder*%
X188080000Y-119420000D02*
X189080000Y-119420000D01*
X188580000Y-118920000D02*
X188580000Y-119920000D01*
X191580000Y-119420000D02*
G75*
G02*
X185580000Y-119420000I-3000000J0D01*
G01*
X185580000Y-119420000D02*
G75*
G02*
X191580000Y-119420000I3000000J0D01*
G01*
%TO.C,R4*%
X179732000Y-128810000D02*
X180062000Y-128810000D01*
X179732000Y-135350000D02*
X179732000Y-128810000D01*
X180062000Y-135350000D02*
X179732000Y-135350000D01*
X182142000Y-135350000D02*
X182472000Y-135350000D01*
X182472000Y-128810000D02*
X182142000Y-128810000D01*
X182472000Y-135350000D02*
X182472000Y-128810000D01*
%TO.C,B3*%
X94290000Y-124980000D02*
X94290000Y-126480000D01*
X95540000Y-128980000D02*
X100040000Y-128980000D01*
X100040000Y-122480000D02*
X95540000Y-122480000D01*
X101290000Y-126480000D02*
X101290000Y-124980000D01*
%TO.C,B4*%
X94290000Y-134800000D02*
X94290000Y-136300000D01*
X95540000Y-138800000D02*
X100040000Y-138800000D01*
X100040000Y-132300000D02*
X95540000Y-132300000D01*
X101290000Y-136300000D02*
X101290000Y-134800000D01*
%TO.C,B2*%
X94290000Y-114820000D02*
X94290000Y-116320000D01*
X95540000Y-118820000D02*
X100040000Y-118820000D01*
X100040000Y-112320000D02*
X95540000Y-112320000D01*
X101290000Y-116320000D02*
X101290000Y-114820000D01*
%TO.C,B1*%
X94290000Y-104660000D02*
X94290000Y-106160000D01*
X95540000Y-108660000D02*
X100040000Y-108660000D01*
X100040000Y-102160000D02*
X95540000Y-102160000D01*
X101290000Y-106160000D02*
X101290000Y-104660000D01*
%TO.C,R3*%
X184050000Y-128810000D02*
X184380000Y-128810000D01*
X184050000Y-135350000D02*
X184050000Y-128810000D01*
X184380000Y-135350000D02*
X184050000Y-135350000D01*
X186460000Y-135350000D02*
X186790000Y-135350000D01*
X186790000Y-128810000D02*
X186460000Y-128810000D01*
X186790000Y-135350000D02*
X186790000Y-128810000D01*
D11*
%TO.C,OLED_LCD_Display1*%
X108915000Y-99695000D02*
G75*
G02*
X105715000Y-99695000I-1600000J0D01*
G01*
X105715000Y-99695000D02*
G75*
G02*
X108915000Y-99695000I1600000J0D01*
G01*
X109042000Y-139192000D02*
G75*
G02*
X105842000Y-139192000I-1600000J0D01*
G01*
X105842000Y-139192000D02*
G75*
G02*
X109042000Y-139192000I1600000J0D01*
G01*
X176098000Y-99822000D02*
G75*
G02*
X172898000Y-99822000I-1600000J0D01*
G01*
X172898000Y-99822000D02*
G75*
G02*
X176098000Y-99822000I1600000J0D01*
G01*
X176098000Y-139192000D02*
G75*
G02*
X172898000Y-139192000I-1600000J0D01*
G01*
X172898000Y-139192000D02*
G75*
G02*
X176098000Y-139192000I1600000J0D01*
G01*
%TO.C,Joy1*%
X87135000Y-71370000D02*
X87135000Y-71370000D01*
X87135000Y-80870000D02*
X87135000Y-80870000D01*
X88510000Y-71370000D02*
X88510000Y-71370000D01*
X90260000Y-73120000D02*
X90260000Y-73120000D01*
X90260000Y-73120000D02*
X90260000Y-73120000D01*
X90260000Y-79120000D02*
X90260000Y-79120000D01*
X90260000Y-79120000D02*
X90260000Y-79120000D01*
X92085000Y-82695000D02*
X92085000Y-82695000D01*
X92085000Y-82695000D02*
X92085000Y-82695000D01*
X92085000Y-85820000D02*
X92085000Y-85820000D01*
X92585000Y-82695000D02*
X92585000Y-82695000D01*
D14*
X94335000Y-86720000D02*
X94335000Y-86720000D01*
X94335000Y-86720000D02*
X94335000Y-86720000D01*
D11*
X95335000Y-69545000D02*
X95335000Y-69545000D01*
X98335000Y-69545000D02*
X98335000Y-69545000D01*
X101085000Y-82695000D02*
X101085000Y-82695000D01*
X101585000Y-82695000D02*
X101585000Y-82695000D01*
X101585000Y-82695000D02*
X101585000Y-82695000D01*
X101585000Y-85820000D02*
X101585000Y-85820000D01*
X103410000Y-79120000D02*
X103410000Y-79120000D01*
D14*
X94335000Y-86720000D02*
G75*
G02*
X94335000Y-86830000I0J-55000D01*
G01*
X94335000Y-86830000D02*
G75*
G02*
X94335000Y-86720000I0J55000D01*
G01*
X94335000Y-86830000D02*
G75*
G02*
X94335000Y-86720000I0J55000D01*
G01*
D11*
%TO.C,Joy2*%
X175405000Y-71370000D02*
X175405000Y-71370000D01*
X175405000Y-80870000D02*
X175405000Y-80870000D01*
X178530000Y-73120000D02*
X178530000Y-73120000D01*
X178530000Y-73120000D02*
X178530000Y-73120000D01*
X178530000Y-79120000D02*
X178530000Y-79120000D01*
X178530000Y-79120000D02*
X178530000Y-79120000D01*
X180355000Y-82695000D02*
X180355000Y-82695000D01*
X180355000Y-82695000D02*
X180355000Y-82695000D01*
X180355000Y-85820000D02*
X180355000Y-85820000D01*
X180855000Y-82695000D02*
X180855000Y-82695000D01*
D14*
X182605000Y-86720000D02*
X182605000Y-86720000D01*
X182605000Y-86720000D02*
X182605000Y-86720000D01*
D11*
X183605000Y-69545000D02*
X183605000Y-69545000D01*
X186605000Y-69545000D02*
X186605000Y-69545000D01*
X189355000Y-82695000D02*
X189355000Y-82695000D01*
X189855000Y-82695000D02*
X189855000Y-82695000D01*
X189855000Y-82695000D02*
X189855000Y-82695000D01*
X189855000Y-82695000D02*
X189855000Y-85820000D01*
X189855000Y-85820000D02*
X189855000Y-82695000D01*
X189855000Y-85820000D02*
X189855000Y-85820000D01*
X191680000Y-73120000D02*
X191680000Y-73120000D01*
X191680000Y-79120000D02*
X191680000Y-79120000D01*
D14*
X182605000Y-86720000D02*
G75*
G02*
X182605000Y-86830000I0J-55000D01*
G01*
X182605000Y-86830000D02*
G75*
G02*
X182605000Y-86720000I0J55000D01*
G01*
X182605000Y-86830000D02*
G75*
G02*
X182605000Y-86720000I0J55000D01*
G01*
%TD*%
M02*
