M48
; DRILL file {KiCad 8.0.6} date 2024-11-18T15:04:37+0700
; FORMAT={-:-/ absolute / inch / decimal}
; #@! TF.CreationDate,2024-11-18T15:04:37+07:00
; #@! TF.GenerationSoftware,Kicad,Pcbnew,8.0.6
; #@! TF.FileFunction,Plated,1,2,PTH
FMAT,2
INCH
; #@! TA.AperFunction,Plated,PTH,ViaDrill
T1C0.0157
; #@! TA.AperFunction,Plated,PTH,ComponentDrill
T2C0.0276
; #@! TA.AperFunction,Plated,PTH,ComponentDrill
T3C0.0315
; #@! TA.AperFunction,Plated,PTH,ComponentDrill
T4C0.0394
; #@! TA.AperFunction,Plated,PTH,ComponentDrill
T5C0.0433
; #@! TA.AperFunction,Plated,PTH,ComponentDrill
T6C0.0512
; #@! TA.AperFunction,Plated,PTH,ComponentDrill
T7C0.0591
; #@! TA.AperFunction,Plated,PTH,ComponentDrill
T8C0.0630
%
G90
G05
T1
X3.22Y-3.08
X3.24Y-5.04
X3.3075Y-3.36
X3.3538Y-3.36
X3.4Y-3.36
X3.52Y-2.6
X3.52Y-3.32
X3.64Y-2.32
X3.64Y-5.18
X3.67Y-5.52
X3.68Y-3.92
X3.6998Y-5.168
X3.7832Y-2.8948
X3.8539Y-3.96
X3.8539Y-4.14
X3.8539Y-5.12
X3.86Y-3.6
X3.89Y-3.51
X3.9Y-4.7745
X3.92Y-4.94
X3.9212Y-4.9862
X4.02Y-3.86
X4.0523Y-5.5235
X4.12Y-5.22
X4.14Y-2.59
X4.22Y-4.58
X4.24Y-4.86
X4.2918Y-3.44
X4.3075Y-3.08
X4.3075Y-2.8604
X4.3538Y-2.86
X4.3538Y-3.08
X4.36Y-4.04
X4.4Y-2.86
X4.4Y-3.08
X4.42Y-5.013
X4.4462Y-3.08
X4.4464Y-2.86
X4.52Y-4.46
X4.5236Y-4.3764
X4.56Y-4.34
X4.68Y-4.76
X4.72Y-4.3593
X4.72Y-4.4542
X4.72Y-5.46
X4.92Y-2.72
X5.08Y-4.04
X5.111Y-4.2652
X5.12Y-3.78
X5.1516Y-3.4484
X5.1524Y-3.8168
X5.195Y-3.835
X5.2Y-4.52
X5.2834Y-3.4484
X5.3229Y-4.892
X5.34Y-3.54
X5.4Y-3.6466
X5.443Y-3.6957
X5.48Y-3.72
X5.5Y-4.04
X5.5043Y-3.757
X5.5414Y-3.7941
X5.6261Y-3.8288
X5.74Y-4.3
X5.75Y-3.43
X5.84Y-2.82
X5.8517Y-3.2683
X6.0003Y-3.9043
X6.08Y-3.18
X6.12Y-3.6
X6.18Y-4.64
X6.22Y-3.98
X6.3264Y-3.6064
X6.5Y-2.84
X6.58Y-5.48
X6.62Y-4.26
X6.71Y-5.11
X6.8Y-3.74
X6.84Y-2.82
X6.86Y-3.36
X6.9564Y-4.1364
X6.9611Y-4.5334
X7.02Y-4.71
X7.18Y-3.82
X7.3Y-4.18
X7.38Y-2.96
X7.4643Y-5.0864
X7.48Y-2.34
X7.56Y-4.6
X7.6Y-2.6
X7.78Y-2.98
X7.84Y-4.32
T2
X5.92Y-3.38
X5.92Y-3.4587
T3
X3.475Y-3.5
X3.475Y-3.6
X3.475Y-3.7
X3.475Y-3.8
X3.475Y-3.9
X3.475Y-4.0
X3.475Y-4.1
X3.475Y-4.2
X3.475Y-4.3
X3.475Y-4.4
X3.475Y-4.5
X3.475Y-4.6
X3.475Y-4.7
X3.475Y-4.8
X3.475Y-4.9
X3.475Y-5.0
X3.475Y-5.1
X3.475Y-5.2
X3.475Y-5.3
X3.475Y-5.4
X3.475Y-5.5
X3.52Y-2.28
X3.52Y-2.42
X3.575Y-3.5
X3.575Y-3.6
X3.575Y-3.7
X3.575Y-3.8
X3.575Y-3.9
X3.575Y-4.0
X3.575Y-4.1
X3.575Y-4.2
X3.575Y-4.3
X3.575Y-4.4
X3.575Y-4.5
X3.575Y-4.6
X3.575Y-4.7
X3.575Y-4.8
X3.575Y-4.9
X3.575Y-5.0
X3.575Y-5.1
X3.575Y-5.2
X3.575Y-5.3
X3.575Y-5.4
X3.575Y-5.5
X3.78Y-2.28
X3.78Y-2.42
X3.9921Y-3.5
X3.9921Y-3.6
X4.0921Y-3.5
X4.0921Y-3.6
X4.1921Y-3.5
X4.1921Y-3.6
X4.4921Y-3.5
X4.4921Y-3.6
X4.5921Y-3.5
X4.5921Y-3.6
X4.6921Y-3.5
X4.6921Y-3.6
X4.7921Y-3.5
X4.7921Y-3.6
X4.7921Y-3.7
X4.7921Y-3.8
X4.7921Y-3.9
X4.7921Y-4.0
X4.7921Y-4.1
X4.7921Y-4.2
X4.7921Y-4.3
X4.7921Y-4.4
X4.7921Y-4.5
X4.7921Y-4.6
X4.7921Y-4.7
X4.7921Y-4.8
X4.7921Y-4.9
X4.7921Y-5.0
X4.8921Y-3.5
X4.8921Y-3.6
X4.8921Y-3.7
X4.8921Y-3.8
X4.8921Y-3.9
X4.8921Y-4.0
X4.8921Y-4.1
X4.8921Y-4.2
X4.8921Y-4.3
X4.8921Y-4.4
X4.8921Y-4.5
X4.8921Y-4.6
X4.8921Y-4.7
X4.8921Y-4.8
X4.8921Y-4.9
X4.8921Y-5.0
X5.1Y-4.7526
X5.1Y-4.851
X5.1972Y-4.166
X5.25Y-3.9
X5.29Y-4.5
X5.29Y-4.64
X5.2972Y-4.166
X5.35Y-3.9
X5.3972Y-4.166
X5.45Y-3.9
X5.4972Y-4.166
X5.55Y-3.9
X5.59Y-4.5
X5.59Y-4.64
X5.5972Y-4.166
X5.65Y-3.9
X5.6972Y-4.166
X5.75Y-3.9
X5.7972Y-4.166
X5.85Y-3.9
X5.8972Y-4.166
X6.95Y-3.625
X6.95Y-3.725
X7.05Y-3.625
X7.05Y-3.725
X7.13Y-5.05
X7.13Y-5.35
X7.15Y-3.625
X7.15Y-3.725
X7.18Y-3.94
X7.25Y-3.625
X7.25Y-3.725
X7.2784Y-3.94
X7.3Y-5.05
X7.3Y-5.35
X7.36Y-2.28
X7.36Y-2.42
X7.62Y-2.28
X7.62Y-2.42
T4
X4.6102Y-3.0744
X4.7087Y-3.0744
X4.8071Y-3.0744
X6.2929Y-3.0744
X6.3913Y-3.0744
X6.4898Y-3.0744
X7.1291Y-4.6031
X7.1291Y-4.7016
X7.1291Y-4.8
X7.7Y-4.6031
X7.7Y-4.8
T5
X3.4687Y-2.8984
X3.4687Y-2.9969
X3.4687Y-3.0953
X3.714Y-3.3406
X3.722Y-4.0614
X3.722Y-4.2386
X3.722Y-4.4614
X3.722Y-4.6386
X3.722Y-4.8614
X3.722Y-5.0386
X3.722Y-5.248
X3.722Y-5.4252
X3.8124Y-3.3406
X3.9108Y-3.3406
X3.978Y-4.0614
X3.978Y-4.2386
X3.978Y-4.4614
X3.978Y-4.6386
X3.978Y-4.8614
X3.978Y-5.0386
X3.978Y-5.248
X3.978Y-5.4252
X6.9439Y-2.8984
X6.9439Y-2.9969
X6.9439Y-3.0953
X7.1892Y-3.3406
X7.2876Y-3.3406
X7.386Y-3.3406
T6
X3.6844Y-2.5933
X3.6844Y-2.7705
X3.9404Y-2.5933
X3.9404Y-2.7705
X7.1596Y-2.5933
X7.1596Y-2.7705
X7.4156Y-2.5933
X7.4156Y-2.7705
T8
X3.5634Y-2.8
X3.5634Y-3.1937
X4.0614Y-2.8
X4.0614Y-3.1937
X7.0386Y-2.8
X7.0386Y-3.1937
X7.5366Y-2.8
X7.5366Y-3.1937
T4
G00X4.6495Y-2.4359
M15
G01X4.5905Y-2.4359
M16
G05
G00X4.6495Y-2.6013
M15
G01X4.5905Y-2.6013
M16
G05
G00X5.2495Y-2.4359
M15
G01X5.1905Y-2.4359
M16
G05
G00X5.2495Y-2.6013
M15
G01X5.1905Y-2.6013
M16
G05
G00X5.6337Y-3.0
M15
G01X5.4663Y-3.0
M16
G05
G00X5.6337Y-3.2756
M15
G01X5.4663Y-3.2756
M16
G05
G00X5.6337Y-3.5512
M15
G01X5.4663Y-3.5512
M16
G05
G00X5.9095Y-2.4359
M15
G01X5.8505Y-2.4359
M16
G05
G00X5.9095Y-2.6013
M15
G01X5.8505Y-2.6013
M16
G05
G00X6.5095Y-2.4359
M15
G01X6.4505Y-2.4359
M16
G05
G00X6.5095Y-2.6013
M15
G01X6.4505Y-2.6013
M16
G05
T7
G00X7.3988Y-4.4811
M15
G01X7.45Y-4.4811
M16
G05
G00X7.3988Y-4.922
M15
G01X7.45Y-4.922
M16
G05
M30
