%TF.GenerationSoftware,KiCad,Pcbnew,8.0.6*%
%TF.CreationDate,2024-11-18T15:04:43+07:00*%
%TF.ProjectId,RC-Transmitter,52432d54-7261-46e7-936d-69747465722e,V1.02*%
%TF.SameCoordinates,Original*%
%TF.FileFunction,Legend,Bot*%
%TF.FilePolarity,Positive*%
%FSLAX46Y46*%
G04 Gerber Fmt 4.6, Leading zero omitted, Abs format (unit mm)*
G04 Created by KiCad (PCBNEW 8.0.6) date 2024-11-18 15:04:43*
%MOMM*%
%LPD*%
G01*
G04 APERTURE LIST*
%ADD10C,0.150000*%
%ADD11C,0.100000*%
%ADD12C,0.120000*%
G04 APERTURE END LIST*
D10*
X142822524Y-113439890D02*
X143584429Y-113439890D01*
X143203476Y-113820843D02*
X143203476Y-113058938D01*
X142840078Y-111438816D02*
X143601983Y-111438816D01*
X135040571Y-122882819D02*
X135611999Y-122882819D01*
X135326285Y-122882819D02*
X135326285Y-121882819D01*
X135326285Y-121882819D02*
X135421523Y-122025676D01*
X135421523Y-122025676D02*
X135516761Y-122120914D01*
X135516761Y-122120914D02*
X135611999Y-122168533D01*
X134421523Y-121882819D02*
X134326285Y-121882819D01*
X134326285Y-121882819D02*
X134231047Y-121930438D01*
X134231047Y-121930438D02*
X134183428Y-121978057D01*
X134183428Y-121978057D02*
X134135809Y-122073295D01*
X134135809Y-122073295D02*
X134088190Y-122263771D01*
X134088190Y-122263771D02*
X134088190Y-122501866D01*
X134088190Y-122501866D02*
X134135809Y-122692342D01*
X134135809Y-122692342D02*
X134183428Y-122787580D01*
X134183428Y-122787580D02*
X134231047Y-122835200D01*
X134231047Y-122835200D02*
X134326285Y-122882819D01*
X134326285Y-122882819D02*
X134421523Y-122882819D01*
X134421523Y-122882819D02*
X134516761Y-122835200D01*
X134516761Y-122835200D02*
X134564380Y-122787580D01*
X134564380Y-122787580D02*
X134611999Y-122692342D01*
X134611999Y-122692342D02*
X134659618Y-122501866D01*
X134659618Y-122501866D02*
X134659618Y-122263771D01*
X134659618Y-122263771D02*
X134611999Y-122073295D01*
X134611999Y-122073295D02*
X134564380Y-121978057D01*
X134564380Y-121978057D02*
X134516761Y-121930438D01*
X134516761Y-121930438D02*
X134421523Y-121882819D01*
X133231047Y-122216152D02*
X133231047Y-122882819D01*
X133659618Y-122216152D02*
X133659618Y-122739961D01*
X133659618Y-122739961D02*
X133611999Y-122835200D01*
X133611999Y-122835200D02*
X133516761Y-122882819D01*
X133516761Y-122882819D02*
X133373904Y-122882819D01*
X133373904Y-122882819D02*
X133278666Y-122835200D01*
X133278666Y-122835200D02*
X133231047Y-122787580D01*
X132897713Y-122216152D02*
X132516761Y-122216152D01*
X132754856Y-122882819D02*
X132754856Y-122025676D01*
X132754856Y-122025676D02*
X132707237Y-121930438D01*
X132707237Y-121930438D02*
X132611999Y-121882819D01*
X132611999Y-121882819D02*
X132516761Y-121882819D01*
D11*
X162776460Y-88057409D02*
X162776460Y-88771694D01*
X162776460Y-88771694D02*
X162824079Y-88914551D01*
X162824079Y-88914551D02*
X162919317Y-89009790D01*
X162919317Y-89009790D02*
X163062174Y-89057409D01*
X163062174Y-89057409D02*
X163157412Y-89057409D01*
X162347888Y-89009790D02*
X162205031Y-89057409D01*
X162205031Y-89057409D02*
X161966936Y-89057409D01*
X161966936Y-89057409D02*
X161871698Y-89009790D01*
X161871698Y-89009790D02*
X161824079Y-88962170D01*
X161824079Y-88962170D02*
X161776460Y-88866932D01*
X161776460Y-88866932D02*
X161776460Y-88771694D01*
X161776460Y-88771694D02*
X161824079Y-88676456D01*
X161824079Y-88676456D02*
X161871698Y-88628837D01*
X161871698Y-88628837D02*
X161966936Y-88581218D01*
X161966936Y-88581218D02*
X162157412Y-88533599D01*
X162157412Y-88533599D02*
X162252650Y-88485980D01*
X162252650Y-88485980D02*
X162300269Y-88438361D01*
X162300269Y-88438361D02*
X162347888Y-88343123D01*
X162347888Y-88343123D02*
X162347888Y-88247885D01*
X162347888Y-88247885D02*
X162300269Y-88152647D01*
X162300269Y-88152647D02*
X162252650Y-88105028D01*
X162252650Y-88105028D02*
X162157412Y-88057409D01*
X162157412Y-88057409D02*
X161919317Y-88057409D01*
X161919317Y-88057409D02*
X161776460Y-88105028D01*
X161490745Y-88057409D02*
X160919317Y-88057409D01*
X161205031Y-89057409D02*
X161205031Y-88057409D01*
X159252650Y-88962170D02*
X159300269Y-89009790D01*
X159300269Y-89009790D02*
X159443126Y-89057409D01*
X159443126Y-89057409D02*
X159538364Y-89057409D01*
X159538364Y-89057409D02*
X159681221Y-89009790D01*
X159681221Y-89009790D02*
X159776459Y-88914551D01*
X159776459Y-88914551D02*
X159824078Y-88819313D01*
X159824078Y-88819313D02*
X159871697Y-88628837D01*
X159871697Y-88628837D02*
X159871697Y-88485980D01*
X159871697Y-88485980D02*
X159824078Y-88295504D01*
X159824078Y-88295504D02*
X159776459Y-88200266D01*
X159776459Y-88200266D02*
X159681221Y-88105028D01*
X159681221Y-88105028D02*
X159538364Y-88057409D01*
X159538364Y-88057409D02*
X159443126Y-88057409D01*
X159443126Y-88057409D02*
X159300269Y-88105028D01*
X159300269Y-88105028D02*
X159252650Y-88152647D01*
X158681221Y-89057409D02*
X158776459Y-89009790D01*
X158776459Y-89009790D02*
X158824078Y-88962170D01*
X158824078Y-88962170D02*
X158871697Y-88866932D01*
X158871697Y-88866932D02*
X158871697Y-88581218D01*
X158871697Y-88581218D02*
X158824078Y-88485980D01*
X158824078Y-88485980D02*
X158776459Y-88438361D01*
X158776459Y-88438361D02*
X158681221Y-88390742D01*
X158681221Y-88390742D02*
X158538364Y-88390742D01*
X158538364Y-88390742D02*
X158443126Y-88438361D01*
X158443126Y-88438361D02*
X158395507Y-88485980D01*
X158395507Y-88485980D02*
X158347888Y-88581218D01*
X158347888Y-88581218D02*
X158347888Y-88866932D01*
X158347888Y-88866932D02*
X158395507Y-88962170D01*
X158395507Y-88962170D02*
X158443126Y-89009790D01*
X158443126Y-89009790D02*
X158538364Y-89057409D01*
X158538364Y-89057409D02*
X158681221Y-89057409D01*
X157919316Y-88390742D02*
X157919316Y-89057409D01*
X157919316Y-88485980D02*
X157871697Y-88438361D01*
X157871697Y-88438361D02*
X157776459Y-88390742D01*
X157776459Y-88390742D02*
X157633602Y-88390742D01*
X157633602Y-88390742D02*
X157538364Y-88438361D01*
X157538364Y-88438361D02*
X157490745Y-88533599D01*
X157490745Y-88533599D02*
X157490745Y-89057409D01*
X157014554Y-88390742D02*
X157014554Y-89057409D01*
X157014554Y-88485980D02*
X156966935Y-88438361D01*
X156966935Y-88438361D02*
X156871697Y-88390742D01*
X156871697Y-88390742D02*
X156728840Y-88390742D01*
X156728840Y-88390742D02*
X156633602Y-88438361D01*
X156633602Y-88438361D02*
X156585983Y-88533599D01*
X156585983Y-88533599D02*
X156585983Y-89057409D01*
X155728840Y-89009790D02*
X155824078Y-89057409D01*
X155824078Y-89057409D02*
X156014554Y-89057409D01*
X156014554Y-89057409D02*
X156109792Y-89009790D01*
X156109792Y-89009790D02*
X156157411Y-88914551D01*
X156157411Y-88914551D02*
X156157411Y-88533599D01*
X156157411Y-88533599D02*
X156109792Y-88438361D01*
X156109792Y-88438361D02*
X156014554Y-88390742D01*
X156014554Y-88390742D02*
X155824078Y-88390742D01*
X155824078Y-88390742D02*
X155728840Y-88438361D01*
X155728840Y-88438361D02*
X155681221Y-88533599D01*
X155681221Y-88533599D02*
X155681221Y-88628837D01*
X155681221Y-88628837D02*
X156157411Y-88724075D01*
X154824078Y-89009790D02*
X154919316Y-89057409D01*
X154919316Y-89057409D02*
X155109792Y-89057409D01*
X155109792Y-89057409D02*
X155205030Y-89009790D01*
X155205030Y-89009790D02*
X155252649Y-88962170D01*
X155252649Y-88962170D02*
X155300268Y-88866932D01*
X155300268Y-88866932D02*
X155300268Y-88581218D01*
X155300268Y-88581218D02*
X155252649Y-88485980D01*
X155252649Y-88485980D02*
X155205030Y-88438361D01*
X155205030Y-88438361D02*
X155109792Y-88390742D01*
X155109792Y-88390742D02*
X154919316Y-88390742D01*
X154919316Y-88390742D02*
X154824078Y-88438361D01*
X154538363Y-88390742D02*
X154157411Y-88390742D01*
X154395506Y-88057409D02*
X154395506Y-88914551D01*
X154395506Y-88914551D02*
X154347887Y-89009790D01*
X154347887Y-89009790D02*
X154252649Y-89057409D01*
X154252649Y-89057409D02*
X154157411Y-89057409D01*
X153681220Y-89057409D02*
X153776458Y-89009790D01*
X153776458Y-89009790D02*
X153824077Y-88962170D01*
X153824077Y-88962170D02*
X153871696Y-88866932D01*
X153871696Y-88866932D02*
X153871696Y-88581218D01*
X153871696Y-88581218D02*
X153824077Y-88485980D01*
X153824077Y-88485980D02*
X153776458Y-88438361D01*
X153776458Y-88438361D02*
X153681220Y-88390742D01*
X153681220Y-88390742D02*
X153538363Y-88390742D01*
X153538363Y-88390742D02*
X153443125Y-88438361D01*
X153443125Y-88438361D02*
X153395506Y-88485980D01*
X153395506Y-88485980D02*
X153347887Y-88581218D01*
X153347887Y-88581218D02*
X153347887Y-88866932D01*
X153347887Y-88866932D02*
X153395506Y-88962170D01*
X153395506Y-88962170D02*
X153443125Y-89009790D01*
X153443125Y-89009790D02*
X153538363Y-89057409D01*
X153538363Y-89057409D02*
X153681220Y-89057409D01*
X152919315Y-89057409D02*
X152919315Y-88390742D01*
X152919315Y-88581218D02*
X152871696Y-88485980D01*
X152871696Y-88485980D02*
X152824077Y-88438361D01*
X152824077Y-88438361D02*
X152728839Y-88390742D01*
X152728839Y-88390742D02*
X152633601Y-88390742D01*
X148409886Y-87926633D02*
X147647982Y-87926633D01*
X148409886Y-85820049D02*
X147647982Y-85820049D01*
X148028934Y-86201002D02*
X148028934Y-85439097D01*
X142616460Y-108326981D02*
X142616460Y-107326981D01*
X142140270Y-108326981D02*
X142140270Y-107326981D01*
X142140270Y-107326981D02*
X141806937Y-108041266D01*
X141806937Y-108041266D02*
X141473604Y-107326981D01*
X141473604Y-107326981D02*
X141473604Y-108326981D01*
X140997413Y-107326981D02*
X140997413Y-108136504D01*
X140997413Y-108136504D02*
X140949794Y-108231742D01*
X140949794Y-108231742D02*
X140902175Y-108279362D01*
X140902175Y-108279362D02*
X140806937Y-108326981D01*
X140806937Y-108326981D02*
X140616461Y-108326981D01*
X140616461Y-108326981D02*
X140521223Y-108279362D01*
X140521223Y-108279362D02*
X140473604Y-108231742D01*
X140473604Y-108231742D02*
X140425985Y-108136504D01*
X140425985Y-108136504D02*
X140425985Y-107326981D01*
D10*
X145883238Y-118310819D02*
X146454666Y-118310819D01*
X146168952Y-118310819D02*
X146168952Y-117310819D01*
X146168952Y-117310819D02*
X146264190Y-117453676D01*
X146264190Y-117453676D02*
X146359428Y-117548914D01*
X146359428Y-117548914D02*
X146454666Y-117596533D01*
X145264190Y-117310819D02*
X145168952Y-117310819D01*
X145168952Y-117310819D02*
X145073714Y-117358438D01*
X145073714Y-117358438D02*
X145026095Y-117406057D01*
X145026095Y-117406057D02*
X144978476Y-117501295D01*
X144978476Y-117501295D02*
X144930857Y-117691771D01*
X144930857Y-117691771D02*
X144930857Y-117929866D01*
X144930857Y-117929866D02*
X144978476Y-118120342D01*
X144978476Y-118120342D02*
X145026095Y-118215580D01*
X145026095Y-118215580D02*
X145073714Y-118263200D01*
X145073714Y-118263200D02*
X145168952Y-118310819D01*
X145168952Y-118310819D02*
X145264190Y-118310819D01*
X145264190Y-118310819D02*
X145359428Y-118263200D01*
X145359428Y-118263200D02*
X145407047Y-118215580D01*
X145407047Y-118215580D02*
X145454666Y-118120342D01*
X145454666Y-118120342D02*
X145502285Y-117929866D01*
X145502285Y-117929866D02*
X145502285Y-117691771D01*
X145502285Y-117691771D02*
X145454666Y-117501295D01*
X145454666Y-117501295D02*
X145407047Y-117406057D01*
X145407047Y-117406057D02*
X145359428Y-117358438D01*
X145359428Y-117358438D02*
X145264190Y-117310819D01*
X144502285Y-118310819D02*
X144502285Y-117310819D01*
X144407047Y-117929866D02*
X144121333Y-118310819D01*
X144121333Y-117644152D02*
X144502285Y-118025104D01*
X189396571Y-101546819D02*
X189967999Y-101546819D01*
X189682285Y-101546819D02*
X189682285Y-100546819D01*
X189682285Y-100546819D02*
X189777523Y-100689676D01*
X189777523Y-100689676D02*
X189872761Y-100784914D01*
X189872761Y-100784914D02*
X189967999Y-100832533D01*
X188777523Y-100546819D02*
X188682285Y-100546819D01*
X188682285Y-100546819D02*
X188587047Y-100594438D01*
X188587047Y-100594438D02*
X188539428Y-100642057D01*
X188539428Y-100642057D02*
X188491809Y-100737295D01*
X188491809Y-100737295D02*
X188444190Y-100927771D01*
X188444190Y-100927771D02*
X188444190Y-101165866D01*
X188444190Y-101165866D02*
X188491809Y-101356342D01*
X188491809Y-101356342D02*
X188539428Y-101451580D01*
X188539428Y-101451580D02*
X188587047Y-101499200D01*
X188587047Y-101499200D02*
X188682285Y-101546819D01*
X188682285Y-101546819D02*
X188777523Y-101546819D01*
X188777523Y-101546819D02*
X188872761Y-101499200D01*
X188872761Y-101499200D02*
X188920380Y-101451580D01*
X188920380Y-101451580D02*
X188967999Y-101356342D01*
X188967999Y-101356342D02*
X189015618Y-101165866D01*
X189015618Y-101165866D02*
X189015618Y-100927771D01*
X189015618Y-100927771D02*
X188967999Y-100737295D01*
X188967999Y-100737295D02*
X188920380Y-100642057D01*
X188920380Y-100642057D02*
X188872761Y-100594438D01*
X188872761Y-100594438D02*
X188777523Y-100546819D01*
X187587047Y-100880152D02*
X187587047Y-101546819D01*
X188015618Y-100880152D02*
X188015618Y-101403961D01*
X188015618Y-101403961D02*
X187967999Y-101499200D01*
X187967999Y-101499200D02*
X187872761Y-101546819D01*
X187872761Y-101546819D02*
X187729904Y-101546819D01*
X187729904Y-101546819D02*
X187634666Y-101499200D01*
X187634666Y-101499200D02*
X187587047Y-101451580D01*
X187253713Y-100880152D02*
X186872761Y-100880152D01*
X187110856Y-101546819D02*
X187110856Y-100689676D01*
X187110856Y-100689676D02*
X187063237Y-100594438D01*
X187063237Y-100594438D02*
X186967999Y-100546819D01*
X186967999Y-100546819D02*
X186872761Y-100546819D01*
X196222666Y-87322819D02*
X196222666Y-86322819D01*
X196222666Y-86322819D02*
X195651238Y-87322819D01*
X195651238Y-87322819D02*
X195651238Y-86322819D01*
X194603619Y-87322819D02*
X194936952Y-86846628D01*
X195175047Y-87322819D02*
X195175047Y-86322819D01*
X195175047Y-86322819D02*
X194794095Y-86322819D01*
X194794095Y-86322819D02*
X194698857Y-86370438D01*
X194698857Y-86370438D02*
X194651238Y-86418057D01*
X194651238Y-86418057D02*
X194603619Y-86513295D01*
X194603619Y-86513295D02*
X194603619Y-86656152D01*
X194603619Y-86656152D02*
X194651238Y-86751390D01*
X194651238Y-86751390D02*
X194698857Y-86799009D01*
X194698857Y-86799009D02*
X194794095Y-86846628D01*
X194794095Y-86846628D02*
X195175047Y-86846628D01*
X193841714Y-86799009D02*
X194175047Y-86799009D01*
X194175047Y-87322819D02*
X194175047Y-86322819D01*
X194175047Y-86322819D02*
X193698857Y-86322819D01*
X193365523Y-86418057D02*
X193317904Y-86370438D01*
X193317904Y-86370438D02*
X193222666Y-86322819D01*
X193222666Y-86322819D02*
X192984571Y-86322819D01*
X192984571Y-86322819D02*
X192889333Y-86370438D01*
X192889333Y-86370438D02*
X192841714Y-86418057D01*
X192841714Y-86418057D02*
X192794095Y-86513295D01*
X192794095Y-86513295D02*
X192794095Y-86608533D01*
X192794095Y-86608533D02*
X192841714Y-86751390D01*
X192841714Y-86751390D02*
X193413142Y-87322819D01*
X193413142Y-87322819D02*
X192794095Y-87322819D01*
X191936952Y-86656152D02*
X191936952Y-87322819D01*
X192175047Y-86275200D02*
X192413142Y-86989485D01*
X192413142Y-86989485D02*
X191794095Y-86989485D01*
X191997800Y-96103839D02*
X191950180Y-95960982D01*
X191950180Y-95960982D02*
X191950180Y-95722887D01*
X191950180Y-95722887D02*
X191997800Y-95627649D01*
X191997800Y-95627649D02*
X192045419Y-95580030D01*
X192045419Y-95580030D02*
X192140657Y-95532411D01*
X192140657Y-95532411D02*
X192235895Y-95532411D01*
X192235895Y-95532411D02*
X192331133Y-95580030D01*
X192331133Y-95580030D02*
X192378752Y-95627649D01*
X192378752Y-95627649D02*
X192426371Y-95722887D01*
X192426371Y-95722887D02*
X192473990Y-95913363D01*
X192473990Y-95913363D02*
X192521609Y-96008601D01*
X192521609Y-96008601D02*
X192569228Y-96056220D01*
X192569228Y-96056220D02*
X192664466Y-96103839D01*
X192664466Y-96103839D02*
X192759704Y-96103839D01*
X192759704Y-96103839D02*
X192854942Y-96056220D01*
X192854942Y-96056220D02*
X192902561Y-96008601D01*
X192902561Y-96008601D02*
X192950180Y-95913363D01*
X192950180Y-95913363D02*
X192950180Y-95675268D01*
X192950180Y-95675268D02*
X192902561Y-95532411D01*
X192045419Y-94532411D02*
X191997800Y-94580030D01*
X191997800Y-94580030D02*
X191950180Y-94722887D01*
X191950180Y-94722887D02*
X191950180Y-94818125D01*
X191950180Y-94818125D02*
X191997800Y-94960982D01*
X191997800Y-94960982D02*
X192093038Y-95056220D01*
X192093038Y-95056220D02*
X192188276Y-95103839D01*
X192188276Y-95103839D02*
X192378752Y-95151458D01*
X192378752Y-95151458D02*
X192521609Y-95151458D01*
X192521609Y-95151458D02*
X192712085Y-95103839D01*
X192712085Y-95103839D02*
X192807323Y-95056220D01*
X192807323Y-95056220D02*
X192902561Y-94960982D01*
X192902561Y-94960982D02*
X192950180Y-94818125D01*
X192950180Y-94818125D02*
X192950180Y-94722887D01*
X192950180Y-94722887D02*
X192902561Y-94580030D01*
X192902561Y-94580030D02*
X192854942Y-94532411D01*
X191950180Y-94103839D02*
X192950180Y-94103839D01*
X191950180Y-93532411D02*
X192521609Y-93960982D01*
X192950180Y-93532411D02*
X192378752Y-94103839D01*
X194585419Y-91166792D02*
X194537800Y-91214411D01*
X194537800Y-91214411D02*
X194490180Y-91357268D01*
X194490180Y-91357268D02*
X194490180Y-91452506D01*
X194490180Y-91452506D02*
X194537800Y-91595363D01*
X194537800Y-91595363D02*
X194633038Y-91690601D01*
X194633038Y-91690601D02*
X194728276Y-91738220D01*
X194728276Y-91738220D02*
X194918752Y-91785839D01*
X194918752Y-91785839D02*
X195061609Y-91785839D01*
X195061609Y-91785839D02*
X195252085Y-91738220D01*
X195252085Y-91738220D02*
X195347323Y-91690601D01*
X195347323Y-91690601D02*
X195442561Y-91595363D01*
X195442561Y-91595363D02*
X195490180Y-91452506D01*
X195490180Y-91452506D02*
X195490180Y-91357268D01*
X195490180Y-91357268D02*
X195442561Y-91214411D01*
X195442561Y-91214411D02*
X195394942Y-91166792D01*
X194537800Y-90785839D02*
X194490180Y-90642982D01*
X194490180Y-90642982D02*
X194490180Y-90404887D01*
X194490180Y-90404887D02*
X194537800Y-90309649D01*
X194537800Y-90309649D02*
X194585419Y-90262030D01*
X194585419Y-90262030D02*
X194680657Y-90214411D01*
X194680657Y-90214411D02*
X194775895Y-90214411D01*
X194775895Y-90214411D02*
X194871133Y-90262030D01*
X194871133Y-90262030D02*
X194918752Y-90309649D01*
X194918752Y-90309649D02*
X194966371Y-90404887D01*
X194966371Y-90404887D02*
X195013990Y-90595363D01*
X195013990Y-90595363D02*
X195061609Y-90690601D01*
X195061609Y-90690601D02*
X195109228Y-90738220D01*
X195109228Y-90738220D02*
X195204466Y-90785839D01*
X195204466Y-90785839D02*
X195299704Y-90785839D01*
X195299704Y-90785839D02*
X195394942Y-90738220D01*
X195394942Y-90738220D02*
X195442561Y-90690601D01*
X195442561Y-90690601D02*
X195490180Y-90595363D01*
X195490180Y-90595363D02*
X195490180Y-90357268D01*
X195490180Y-90357268D02*
X195442561Y-90214411D01*
X194490180Y-89785839D02*
X195490180Y-89785839D01*
X195490180Y-89785839D02*
X194490180Y-89214411D01*
X194490180Y-89214411D02*
X195490180Y-89214411D01*
X191950180Y-91738220D02*
X192950180Y-91738220D01*
X192950180Y-91738220D02*
X192235895Y-91404887D01*
X192235895Y-91404887D02*
X192950180Y-91071554D01*
X192950180Y-91071554D02*
X191950180Y-91071554D01*
X192950180Y-90404887D02*
X192950180Y-90214411D01*
X192950180Y-90214411D02*
X192902561Y-90119173D01*
X192902561Y-90119173D02*
X192807323Y-90023935D01*
X192807323Y-90023935D02*
X192616847Y-89976316D01*
X192616847Y-89976316D02*
X192283514Y-89976316D01*
X192283514Y-89976316D02*
X192093038Y-90023935D01*
X192093038Y-90023935D02*
X191997800Y-90119173D01*
X191997800Y-90119173D02*
X191950180Y-90214411D01*
X191950180Y-90214411D02*
X191950180Y-90404887D01*
X191950180Y-90404887D02*
X191997800Y-90500125D01*
X191997800Y-90500125D02*
X192093038Y-90595363D01*
X192093038Y-90595363D02*
X192283514Y-90642982D01*
X192283514Y-90642982D02*
X192616847Y-90642982D01*
X192616847Y-90642982D02*
X192807323Y-90595363D01*
X192807323Y-90595363D02*
X192902561Y-90500125D01*
X192902561Y-90500125D02*
X192950180Y-90404887D01*
X191997800Y-89595363D02*
X191950180Y-89452506D01*
X191950180Y-89452506D02*
X191950180Y-89214411D01*
X191950180Y-89214411D02*
X191997800Y-89119173D01*
X191997800Y-89119173D02*
X192045419Y-89071554D01*
X192045419Y-89071554D02*
X192140657Y-89023935D01*
X192140657Y-89023935D02*
X192235895Y-89023935D01*
X192235895Y-89023935D02*
X192331133Y-89071554D01*
X192331133Y-89071554D02*
X192378752Y-89119173D01*
X192378752Y-89119173D02*
X192426371Y-89214411D01*
X192426371Y-89214411D02*
X192473990Y-89404887D01*
X192473990Y-89404887D02*
X192521609Y-89500125D01*
X192521609Y-89500125D02*
X192569228Y-89547744D01*
X192569228Y-89547744D02*
X192664466Y-89595363D01*
X192664466Y-89595363D02*
X192759704Y-89595363D01*
X192759704Y-89595363D02*
X192854942Y-89547744D01*
X192854942Y-89547744D02*
X192902561Y-89500125D01*
X192902561Y-89500125D02*
X192950180Y-89404887D01*
X192950180Y-89404887D02*
X192950180Y-89166792D01*
X192950180Y-89166792D02*
X192902561Y-89023935D01*
X191950180Y-88595363D02*
X192950180Y-88595363D01*
X197982561Y-95532411D02*
X198030180Y-95627649D01*
X198030180Y-95627649D02*
X198030180Y-95770506D01*
X198030180Y-95770506D02*
X197982561Y-95913363D01*
X197982561Y-95913363D02*
X197887323Y-96008601D01*
X197887323Y-96008601D02*
X197792085Y-96056220D01*
X197792085Y-96056220D02*
X197601609Y-96103839D01*
X197601609Y-96103839D02*
X197458752Y-96103839D01*
X197458752Y-96103839D02*
X197268276Y-96056220D01*
X197268276Y-96056220D02*
X197173038Y-96008601D01*
X197173038Y-96008601D02*
X197077800Y-95913363D01*
X197077800Y-95913363D02*
X197030180Y-95770506D01*
X197030180Y-95770506D02*
X197030180Y-95675268D01*
X197030180Y-95675268D02*
X197077800Y-95532411D01*
X197077800Y-95532411D02*
X197125419Y-95484792D01*
X197125419Y-95484792D02*
X197458752Y-95484792D01*
X197458752Y-95484792D02*
X197458752Y-95675268D01*
X197030180Y-95056220D02*
X198030180Y-95056220D01*
X198030180Y-95056220D02*
X197030180Y-94484792D01*
X197030180Y-94484792D02*
X198030180Y-94484792D01*
X197030180Y-94008601D02*
X198030180Y-94008601D01*
X198030180Y-94008601D02*
X198030180Y-93770506D01*
X198030180Y-93770506D02*
X197982561Y-93627649D01*
X197982561Y-93627649D02*
X197887323Y-93532411D01*
X197887323Y-93532411D02*
X197792085Y-93484792D01*
X197792085Y-93484792D02*
X197601609Y-93437173D01*
X197601609Y-93437173D02*
X197458752Y-93437173D01*
X197458752Y-93437173D02*
X197268276Y-93484792D01*
X197268276Y-93484792D02*
X197173038Y-93532411D01*
X197173038Y-93532411D02*
X197077800Y-93627649D01*
X197077800Y-93627649D02*
X197030180Y-93770506D01*
X197030180Y-93770506D02*
X197030180Y-94008601D01*
X194585419Y-95484792D02*
X194537800Y-95532411D01*
X194537800Y-95532411D02*
X194490180Y-95675268D01*
X194490180Y-95675268D02*
X194490180Y-95770506D01*
X194490180Y-95770506D02*
X194537800Y-95913363D01*
X194537800Y-95913363D02*
X194633038Y-96008601D01*
X194633038Y-96008601D02*
X194728276Y-96056220D01*
X194728276Y-96056220D02*
X194918752Y-96103839D01*
X194918752Y-96103839D02*
X195061609Y-96103839D01*
X195061609Y-96103839D02*
X195252085Y-96056220D01*
X195252085Y-96056220D02*
X195347323Y-96008601D01*
X195347323Y-96008601D02*
X195442561Y-95913363D01*
X195442561Y-95913363D02*
X195490180Y-95770506D01*
X195490180Y-95770506D02*
X195490180Y-95675268D01*
X195490180Y-95675268D02*
X195442561Y-95532411D01*
X195442561Y-95532411D02*
X195394942Y-95484792D01*
X195013990Y-95056220D02*
X195013990Y-94722887D01*
X194490180Y-94580030D02*
X194490180Y-95056220D01*
X194490180Y-95056220D02*
X195490180Y-95056220D01*
X195490180Y-95056220D02*
X195490180Y-94580030D01*
X198030180Y-91881077D02*
X197030180Y-91547744D01*
X197030180Y-91547744D02*
X198030180Y-91214411D01*
X197411133Y-90881077D02*
X197411133Y-90119173D01*
X197030180Y-90500125D02*
X197792085Y-90500125D01*
X189410180Y-96056220D02*
X190410180Y-96056220D01*
X190410180Y-96056220D02*
X189695895Y-95722887D01*
X189695895Y-95722887D02*
X190410180Y-95389554D01*
X190410180Y-95389554D02*
X189410180Y-95389554D01*
X189410180Y-94913363D02*
X190410180Y-94913363D01*
X189457800Y-94484792D02*
X189410180Y-94341935D01*
X189410180Y-94341935D02*
X189410180Y-94103840D01*
X189410180Y-94103840D02*
X189457800Y-94008602D01*
X189457800Y-94008602D02*
X189505419Y-93960983D01*
X189505419Y-93960983D02*
X189600657Y-93913364D01*
X189600657Y-93913364D02*
X189695895Y-93913364D01*
X189695895Y-93913364D02*
X189791133Y-93960983D01*
X189791133Y-93960983D02*
X189838752Y-94008602D01*
X189838752Y-94008602D02*
X189886371Y-94103840D01*
X189886371Y-94103840D02*
X189933990Y-94294316D01*
X189933990Y-94294316D02*
X189981609Y-94389554D01*
X189981609Y-94389554D02*
X190029228Y-94437173D01*
X190029228Y-94437173D02*
X190124466Y-94484792D01*
X190124466Y-94484792D02*
X190219704Y-94484792D01*
X190219704Y-94484792D02*
X190314942Y-94437173D01*
X190314942Y-94437173D02*
X190362561Y-94389554D01*
X190362561Y-94389554D02*
X190410180Y-94294316D01*
X190410180Y-94294316D02*
X190410180Y-94056221D01*
X190410180Y-94056221D02*
X190362561Y-93913364D01*
X190410180Y-93294316D02*
X190410180Y-93103840D01*
X190410180Y-93103840D02*
X190362561Y-93008602D01*
X190362561Y-93008602D02*
X190267323Y-92913364D01*
X190267323Y-92913364D02*
X190076847Y-92865745D01*
X190076847Y-92865745D02*
X189743514Y-92865745D01*
X189743514Y-92865745D02*
X189553038Y-92913364D01*
X189553038Y-92913364D02*
X189457800Y-93008602D01*
X189457800Y-93008602D02*
X189410180Y-93103840D01*
X189410180Y-93103840D02*
X189410180Y-93294316D01*
X189410180Y-93294316D02*
X189457800Y-93389554D01*
X189457800Y-93389554D02*
X189553038Y-93484792D01*
X189553038Y-93484792D02*
X189743514Y-93532411D01*
X189743514Y-93532411D02*
X190076847Y-93532411D01*
X190076847Y-93532411D02*
X190267323Y-93484792D01*
X190267323Y-93484792D02*
X190362561Y-93389554D01*
X190362561Y-93389554D02*
X190410180Y-93294316D01*
X189410180Y-91738220D02*
X190410180Y-91738220D01*
X189410180Y-90690602D02*
X189886371Y-91023935D01*
X189410180Y-91262030D02*
X190410180Y-91262030D01*
X190410180Y-91262030D02*
X190410180Y-90881078D01*
X190410180Y-90881078D02*
X190362561Y-90785840D01*
X190362561Y-90785840D02*
X190314942Y-90738221D01*
X190314942Y-90738221D02*
X190219704Y-90690602D01*
X190219704Y-90690602D02*
X190076847Y-90690602D01*
X190076847Y-90690602D02*
X189981609Y-90738221D01*
X189981609Y-90738221D02*
X189933990Y-90785840D01*
X189933990Y-90785840D02*
X189886371Y-90881078D01*
X189886371Y-90881078D02*
X189886371Y-91262030D01*
X189314942Y-89595364D02*
X189362561Y-89690602D01*
X189362561Y-89690602D02*
X189457800Y-89785840D01*
X189457800Y-89785840D02*
X189600657Y-89928697D01*
X189600657Y-89928697D02*
X189648276Y-90023935D01*
X189648276Y-90023935D02*
X189648276Y-90119173D01*
X189410180Y-90071554D02*
X189457800Y-90166792D01*
X189457800Y-90166792D02*
X189553038Y-90262030D01*
X189553038Y-90262030D02*
X189743514Y-90309649D01*
X189743514Y-90309649D02*
X190076847Y-90309649D01*
X190076847Y-90309649D02*
X190267323Y-90262030D01*
X190267323Y-90262030D02*
X190362561Y-90166792D01*
X190362561Y-90166792D02*
X190410180Y-90071554D01*
X190410180Y-90071554D02*
X190410180Y-89881078D01*
X190410180Y-89881078D02*
X190362561Y-89785840D01*
X190362561Y-89785840D02*
X190267323Y-89690602D01*
X190267323Y-89690602D02*
X190076847Y-89642983D01*
X190076847Y-89642983D02*
X189743514Y-89642983D01*
X189743514Y-89642983D02*
X189553038Y-89690602D01*
X189553038Y-89690602D02*
X189457800Y-89785840D01*
X189457800Y-89785840D02*
X189410180Y-89881078D01*
X189410180Y-89881078D02*
X189410180Y-90071554D01*
X145979134Y-114724316D02*
X146550562Y-114724316D01*
X146264848Y-114724316D02*
X146264848Y-113724316D01*
X146264848Y-113724316D02*
X146360086Y-113867173D01*
X146360086Y-113867173D02*
X146455324Y-113962411D01*
X146455324Y-113962411D02*
X146550562Y-114010030D01*
X145360086Y-113724316D02*
X145264848Y-113724316D01*
X145264848Y-113724316D02*
X145169610Y-113771935D01*
X145169610Y-113771935D02*
X145121991Y-113819554D01*
X145121991Y-113819554D02*
X145074372Y-113914792D01*
X145074372Y-113914792D02*
X145026753Y-114105268D01*
X145026753Y-114105268D02*
X145026753Y-114343363D01*
X145026753Y-114343363D02*
X145074372Y-114533839D01*
X145074372Y-114533839D02*
X145121991Y-114629077D01*
X145121991Y-114629077D02*
X145169610Y-114676697D01*
X145169610Y-114676697D02*
X145264848Y-114724316D01*
X145264848Y-114724316D02*
X145360086Y-114724316D01*
X145360086Y-114724316D02*
X145455324Y-114676697D01*
X145455324Y-114676697D02*
X145502943Y-114629077D01*
X145502943Y-114629077D02*
X145550562Y-114533839D01*
X145550562Y-114533839D02*
X145598181Y-114343363D01*
X145598181Y-114343363D02*
X145598181Y-114105268D01*
X145598181Y-114105268D02*
X145550562Y-113914792D01*
X145550562Y-113914792D02*
X145502943Y-113819554D01*
X145502943Y-113819554D02*
X145455324Y-113771935D01*
X145455324Y-113771935D02*
X145360086Y-113724316D01*
X144598181Y-114724316D02*
X144598181Y-113724316D01*
X144502943Y-114343363D02*
X144217229Y-114724316D01*
X144217229Y-114057649D02*
X144598181Y-114438601D01*
D12*
%TO.C,C2*%
X126960000Y-121964888D02*
X132120000Y-121964888D01*
X126960000Y-122004888D02*
X132120000Y-122004888D01*
X126961000Y-122044888D02*
X132119000Y-122044888D01*
X126962000Y-122084888D02*
X132118000Y-122084888D01*
X126964000Y-122124888D02*
X132116000Y-122124888D01*
X126967000Y-122164888D02*
X132113000Y-122164888D01*
X126971000Y-122204888D02*
X128500000Y-122204888D01*
X126975000Y-122244888D02*
X128500000Y-122244888D01*
X126979000Y-122284888D02*
X128500000Y-122284888D01*
X126984000Y-122324888D02*
X128500000Y-122324888D01*
X126990000Y-122364888D02*
X128500000Y-122364888D01*
X126997000Y-122404888D02*
X128500000Y-122404888D01*
X127004000Y-122444888D02*
X128500000Y-122444888D01*
X127012000Y-122484888D02*
X128500000Y-122484888D01*
X127020000Y-122524888D02*
X128500000Y-122524888D01*
X127029000Y-122564888D02*
X128500000Y-122564888D01*
X127039000Y-122604888D02*
X128500000Y-122604888D01*
X127049000Y-122644888D02*
X128500000Y-122644888D01*
X127060000Y-122685888D02*
X128500000Y-122685888D01*
X127072000Y-122725888D02*
X128500000Y-122725888D01*
X127085000Y-122765888D02*
X128500000Y-122765888D01*
X127098000Y-122805888D02*
X128500000Y-122805888D01*
X127112000Y-122845888D02*
X128500000Y-122845888D01*
X127126000Y-122885888D02*
X128500000Y-122885888D01*
X127142000Y-122925888D02*
X128500000Y-122925888D01*
X127158000Y-122965888D02*
X128500000Y-122965888D01*
X127175000Y-123005888D02*
X128500000Y-123005888D01*
X127192000Y-123045888D02*
X128500000Y-123045888D01*
X127211000Y-123085888D02*
X128500000Y-123085888D01*
X127230000Y-123125888D02*
X128500000Y-123125888D01*
X127250000Y-123165888D02*
X128500000Y-123165888D01*
X127272000Y-123205888D02*
X128500000Y-123205888D01*
X127293000Y-123245888D02*
X128500000Y-123245888D01*
X127316000Y-123285888D02*
X128500000Y-123285888D01*
X127340000Y-123325888D02*
X128500000Y-123325888D01*
X127365000Y-123365888D02*
X128500000Y-123365888D01*
X127391000Y-123405888D02*
X128500000Y-123405888D01*
X127418000Y-123445888D02*
X128500000Y-123445888D01*
X127445000Y-123485888D02*
X128500000Y-123485888D01*
X127475000Y-123525888D02*
X128500000Y-123525888D01*
X127505000Y-123565888D02*
X128500000Y-123565888D01*
X127536000Y-123605888D02*
X128500000Y-123605888D01*
X127569000Y-123645888D02*
X128500000Y-123645888D01*
X127603000Y-123685888D02*
X128500000Y-123685888D01*
X127639000Y-123725888D02*
X128500000Y-123725888D01*
X127676000Y-123765888D02*
X128500000Y-123765888D01*
X127714000Y-123805888D02*
X128500000Y-123805888D01*
X127755000Y-123845888D02*
X128500000Y-123845888D01*
X127797000Y-123885888D02*
X128500000Y-123885888D01*
X127815000Y-119410113D02*
X128315000Y-119410113D01*
X127841000Y-123925888D02*
X128500000Y-123925888D01*
X127887000Y-123965888D02*
X128500000Y-123965888D01*
X127935000Y-124005888D02*
X128500000Y-124005888D01*
X127986000Y-124045888D02*
X128500000Y-124045888D01*
X128040000Y-124085888D02*
X128500000Y-124085888D01*
X128065000Y-119160113D02*
X128065000Y-119660113D01*
X128097000Y-124125888D02*
X128500000Y-124125888D01*
X128157000Y-124165888D02*
X128500000Y-124165888D01*
X128221000Y-124205888D02*
X128500000Y-124205888D01*
X128289000Y-124245888D02*
X128500000Y-124245888D01*
X128362000Y-124285888D02*
X130718000Y-124285888D01*
X128442000Y-124325888D02*
X130638000Y-124325888D01*
X128529000Y-124365888D02*
X130551000Y-124365888D01*
X128625000Y-124405888D02*
X130455000Y-124405888D01*
X128735000Y-124445888D02*
X130345000Y-124445888D01*
X128863000Y-124485888D02*
X130217000Y-124485888D01*
X129022000Y-124525888D02*
X130058000Y-124525888D01*
X129256000Y-124565888D02*
X129824000Y-124565888D01*
X130580000Y-122204888D02*
X132109000Y-122204888D01*
X130580000Y-122244888D02*
X132105000Y-122244888D01*
X130580000Y-122284888D02*
X132101000Y-122284888D01*
X130580000Y-122324888D02*
X132096000Y-122324888D01*
X130580000Y-122364888D02*
X132090000Y-122364888D01*
X130580000Y-122404888D02*
X132083000Y-122404888D01*
X130580000Y-122444888D02*
X132076000Y-122444888D01*
X130580000Y-122484888D02*
X132068000Y-122484888D01*
X130580000Y-122524888D02*
X132060000Y-122524888D01*
X130580000Y-122564888D02*
X132051000Y-122564888D01*
X130580000Y-122604888D02*
X132041000Y-122604888D01*
X130580000Y-122644888D02*
X132031000Y-122644888D01*
X130580000Y-122685888D02*
X132020000Y-122685888D01*
X130580000Y-122725888D02*
X132008000Y-122725888D01*
X130580000Y-122765888D02*
X131995000Y-122765888D01*
X130580000Y-122805888D02*
X131982000Y-122805888D01*
X130580000Y-122845888D02*
X131968000Y-122845888D01*
X130580000Y-122885888D02*
X131954000Y-122885888D01*
X130580000Y-122925888D02*
X131938000Y-122925888D01*
X130580000Y-122965888D02*
X131922000Y-122965888D01*
X130580000Y-123005888D02*
X131905000Y-123005888D01*
X130580000Y-123045888D02*
X131888000Y-123045888D01*
X130580000Y-123085888D02*
X131869000Y-123085888D01*
X130580000Y-123125888D02*
X131850000Y-123125888D01*
X130580000Y-123165888D02*
X131830000Y-123165888D01*
X130580000Y-123205888D02*
X131808000Y-123205888D01*
X130580000Y-123245888D02*
X131787000Y-123245888D01*
X130580000Y-123285888D02*
X131764000Y-123285888D01*
X130580000Y-123325888D02*
X131740000Y-123325888D01*
X130580000Y-123365888D02*
X131715000Y-123365888D01*
X130580000Y-123405888D02*
X131689000Y-123405888D01*
X130580000Y-123445888D02*
X131662000Y-123445888D01*
X130580000Y-123485888D02*
X131635000Y-123485888D01*
X130580000Y-123525888D02*
X131605000Y-123525888D01*
X130580000Y-123565888D02*
X131575000Y-123565888D01*
X130580000Y-123605888D02*
X131544000Y-123605888D01*
X130580000Y-123645888D02*
X131511000Y-123645888D01*
X130580000Y-123685888D02*
X131477000Y-123685888D01*
X130580000Y-123725888D02*
X131441000Y-123725888D01*
X130580000Y-123765888D02*
X131404000Y-123765888D01*
X130580000Y-123805888D02*
X131366000Y-123805888D01*
X130580000Y-123845888D02*
X131325000Y-123845888D01*
X130580000Y-123885888D02*
X131283000Y-123885888D01*
X130580000Y-123925888D02*
X131239000Y-123925888D01*
X130580000Y-123965888D02*
X131193000Y-123965888D01*
X130580000Y-124005888D02*
X131145000Y-124005888D01*
X130580000Y-124045888D02*
X131094000Y-124045888D01*
X130580000Y-124085888D02*
X131040000Y-124085888D01*
X130580000Y-124125888D02*
X130983000Y-124125888D01*
X130580000Y-124165888D02*
X130923000Y-124165888D01*
X130580000Y-124205888D02*
X130859000Y-124205888D01*
X130580000Y-124245888D02*
X130791000Y-124245888D01*
X132160000Y-121964888D02*
G75*
G02*
X126920000Y-121964888I-2620000J0D01*
G01*
X126920000Y-121964888D02*
G75*
G02*
X132160000Y-121964888I2620000J0D01*
G01*
%TO.C,JST Connector*%
D11*
X151892000Y-84582000D02*
X148911156Y-84582000D01*
X148911156Y-89237553D01*
X151892000Y-89237553D01*
X151892000Y-84582000D01*
%TO.C,IMU*%
X151313454Y-106832523D02*
X130513454Y-106832523D01*
X130513454Y-91032523D01*
X151313454Y-91032523D01*
X151313454Y-106832523D01*
D12*
%TO.C,R2*%
X134906000Y-116486000D02*
X134906000Y-116816000D01*
X134906000Y-119226000D02*
X134906000Y-118896000D01*
X141446000Y-116486000D02*
X134906000Y-116486000D01*
X141446000Y-116816000D02*
X141446000Y-116486000D01*
X141446000Y-118896000D02*
X141446000Y-119226000D01*
X141446000Y-119226000D02*
X134906000Y-119226000D01*
%TO.C,Mega Pro*%
D11*
X110490000Y-141605000D02*
X117475000Y-141605000D01*
X117475000Y-136525000D01*
X110490000Y-136525000D01*
X110490000Y-141605000D01*
D12*
%TO.C,C1*%
X180817225Y-101551000D02*
X181317225Y-101551000D01*
X181067225Y-101801000D02*
X181067225Y-101301000D01*
X183622000Y-102656000D02*
X183622000Y-97496000D01*
X183662000Y-102656000D02*
X183662000Y-97496000D01*
X183702000Y-102655000D02*
X183702000Y-97497000D01*
X183742000Y-102654000D02*
X183742000Y-97498000D01*
X183782000Y-102652000D02*
X183782000Y-97500000D01*
X183822000Y-102649000D02*
X183822000Y-97503000D01*
X183862000Y-99036000D02*
X183862000Y-97507000D01*
X183862000Y-102645000D02*
X183862000Y-101116000D01*
X183902000Y-99036000D02*
X183902000Y-97511000D01*
X183902000Y-102641000D02*
X183902000Y-101116000D01*
X183942000Y-99036000D02*
X183942000Y-97515000D01*
X183942000Y-102637000D02*
X183942000Y-101116000D01*
X183982000Y-99036000D02*
X183982000Y-97520000D01*
X183982000Y-102632000D02*
X183982000Y-101116000D01*
X184022000Y-99036000D02*
X184022000Y-97526000D01*
X184022000Y-102626000D02*
X184022000Y-101116000D01*
X184062000Y-99036000D02*
X184062000Y-97533000D01*
X184062000Y-102619000D02*
X184062000Y-101116000D01*
X184102000Y-99036000D02*
X184102000Y-97540000D01*
X184102000Y-102612000D02*
X184102000Y-101116000D01*
X184142000Y-99036000D02*
X184142000Y-97548000D01*
X184142000Y-102604000D02*
X184142000Y-101116000D01*
X184182000Y-99036000D02*
X184182000Y-97556000D01*
X184182000Y-102596000D02*
X184182000Y-101116000D01*
X184222000Y-99036000D02*
X184222000Y-97565000D01*
X184222000Y-102587000D02*
X184222000Y-101116000D01*
X184262000Y-99036000D02*
X184262000Y-97575000D01*
X184262000Y-102577000D02*
X184262000Y-101116000D01*
X184302000Y-99036000D02*
X184302000Y-97585000D01*
X184302000Y-102567000D02*
X184302000Y-101116000D01*
X184343000Y-99036000D02*
X184343000Y-97596000D01*
X184343000Y-102556000D02*
X184343000Y-101116000D01*
X184383000Y-99036000D02*
X184383000Y-97608000D01*
X184383000Y-102544000D02*
X184383000Y-101116000D01*
X184423000Y-99036000D02*
X184423000Y-97621000D01*
X184423000Y-102531000D02*
X184423000Y-101116000D01*
X184463000Y-99036000D02*
X184463000Y-97634000D01*
X184463000Y-102518000D02*
X184463000Y-101116000D01*
X184503000Y-99036000D02*
X184503000Y-97648000D01*
X184503000Y-102504000D02*
X184503000Y-101116000D01*
X184543000Y-99036000D02*
X184543000Y-97662000D01*
X184543000Y-102490000D02*
X184543000Y-101116000D01*
X184583000Y-99036000D02*
X184583000Y-97678000D01*
X184583000Y-102474000D02*
X184583000Y-101116000D01*
X184623000Y-99036000D02*
X184623000Y-97694000D01*
X184623000Y-102458000D02*
X184623000Y-101116000D01*
X184663000Y-99036000D02*
X184663000Y-97711000D01*
X184663000Y-102441000D02*
X184663000Y-101116000D01*
X184703000Y-99036000D02*
X184703000Y-97728000D01*
X184703000Y-102424000D02*
X184703000Y-101116000D01*
X184743000Y-99036000D02*
X184743000Y-97747000D01*
X184743000Y-102405000D02*
X184743000Y-101116000D01*
X184783000Y-99036000D02*
X184783000Y-97766000D01*
X184783000Y-102386000D02*
X184783000Y-101116000D01*
X184823000Y-99036000D02*
X184823000Y-97786000D01*
X184823000Y-102366000D02*
X184823000Y-101116000D01*
X184863000Y-99036000D02*
X184863000Y-97808000D01*
X184863000Y-102344000D02*
X184863000Y-101116000D01*
X184903000Y-99036000D02*
X184903000Y-97829000D01*
X184903000Y-102323000D02*
X184903000Y-101116000D01*
X184943000Y-99036000D02*
X184943000Y-97852000D01*
X184943000Y-102300000D02*
X184943000Y-101116000D01*
X184983000Y-99036000D02*
X184983000Y-97876000D01*
X184983000Y-102276000D02*
X184983000Y-101116000D01*
X185023000Y-99036000D02*
X185023000Y-97901000D01*
X185023000Y-102251000D02*
X185023000Y-101116000D01*
X185063000Y-99036000D02*
X185063000Y-97927000D01*
X185063000Y-102225000D02*
X185063000Y-101116000D01*
X185103000Y-99036000D02*
X185103000Y-97954000D01*
X185103000Y-102198000D02*
X185103000Y-101116000D01*
X185143000Y-99036000D02*
X185143000Y-97981000D01*
X185143000Y-102171000D02*
X185143000Y-101116000D01*
X185183000Y-99036000D02*
X185183000Y-98011000D01*
X185183000Y-102141000D02*
X185183000Y-101116000D01*
X185223000Y-99036000D02*
X185223000Y-98041000D01*
X185223000Y-102111000D02*
X185223000Y-101116000D01*
X185263000Y-99036000D02*
X185263000Y-98072000D01*
X185263000Y-102080000D02*
X185263000Y-101116000D01*
X185303000Y-99036000D02*
X185303000Y-98105000D01*
X185303000Y-102047000D02*
X185303000Y-101116000D01*
X185343000Y-99036000D02*
X185343000Y-98139000D01*
X185343000Y-102013000D02*
X185343000Y-101116000D01*
X185383000Y-99036000D02*
X185383000Y-98175000D01*
X185383000Y-101977000D02*
X185383000Y-101116000D01*
X185423000Y-99036000D02*
X185423000Y-98212000D01*
X185423000Y-101940000D02*
X185423000Y-101116000D01*
X185463000Y-99036000D02*
X185463000Y-98250000D01*
X185463000Y-101902000D02*
X185463000Y-101116000D01*
X185503000Y-99036000D02*
X185503000Y-98291000D01*
X185503000Y-101861000D02*
X185503000Y-101116000D01*
X185543000Y-99036000D02*
X185543000Y-98333000D01*
X185543000Y-101819000D02*
X185543000Y-101116000D01*
X185583000Y-99036000D02*
X185583000Y-98377000D01*
X185583000Y-101775000D02*
X185583000Y-101116000D01*
X185623000Y-99036000D02*
X185623000Y-98423000D01*
X185623000Y-101729000D02*
X185623000Y-101116000D01*
X185663000Y-99036000D02*
X185663000Y-98471000D01*
X185663000Y-101681000D02*
X185663000Y-101116000D01*
X185703000Y-99036000D02*
X185703000Y-98522000D01*
X185703000Y-101630000D02*
X185703000Y-101116000D01*
X185743000Y-99036000D02*
X185743000Y-98576000D01*
X185743000Y-101576000D02*
X185743000Y-101116000D01*
X185783000Y-99036000D02*
X185783000Y-98633000D01*
X185783000Y-101519000D02*
X185783000Y-101116000D01*
X185823000Y-99036000D02*
X185823000Y-98693000D01*
X185823000Y-101459000D02*
X185823000Y-101116000D01*
X185863000Y-99036000D02*
X185863000Y-98757000D01*
X185863000Y-101395000D02*
X185863000Y-101116000D01*
X185903000Y-99036000D02*
X185903000Y-98825000D01*
X185903000Y-101327000D02*
X185903000Y-101116000D01*
X185943000Y-101254000D02*
X185943000Y-98898000D01*
X185983000Y-101174000D02*
X185983000Y-98978000D01*
X186023000Y-101087000D02*
X186023000Y-99065000D01*
X186063000Y-100991000D02*
X186063000Y-99161000D01*
X186103000Y-100881000D02*
X186103000Y-99271000D01*
X186143000Y-100753000D02*
X186143000Y-99399000D01*
X186183000Y-100594000D02*
X186183000Y-99558000D01*
X186223000Y-100360000D02*
X186223000Y-99792000D01*
X186242000Y-100076000D02*
G75*
G02*
X181002000Y-100076000I-2620000J0D01*
G01*
X181002000Y-100076000D02*
G75*
G02*
X186242000Y-100076000I2620000J0D01*
G01*
%TO.C,NRF24*%
D11*
X198501000Y-97155000D02*
X188849000Y-97155000D01*
X188849000Y-88392000D01*
X198501000Y-88392000D01*
X198501000Y-97155000D01*
D12*
%TO.C,R1*%
X134906000Y-112930000D02*
X141446000Y-112930000D01*
X134906000Y-113260000D02*
X134906000Y-112930000D01*
X134906000Y-115340000D02*
X134906000Y-115670000D01*
X134906000Y-115670000D02*
X141446000Y-115670000D01*
X141446000Y-112930000D02*
X141446000Y-113260000D01*
X141446000Y-115670000D02*
X141446000Y-115340000D01*
%TD*%
M02*
